<svg width="277" height="95" viewBox="0 0 277 95" xmlns="http://www.w3.org/2000/svg">
<g fill="none" fill-rule="evenodd">
<path fill="#5471F9" d="M195.129 90.674h6.85V2.514h-6.85zm-111.083 0h6.85V24.919h-6.85zM81.709 8.359c0-3.238 2.619-5.845 5.871-5.845 3.253 0 5.872 2.607 5.872 5.845 0 3.237-2.62 5.845-5.872 5.845s-5.871-2.608-5.871-5.845M220.1 9.81l-.014-7.191 40.773-.082.014 7.192z"></path>
<path fill="#40E7B8" d="M232.99 92.868l-6.122-3.06 43.927-87.052 6.122 3.06z"></path>
<path fill="#5471F9" d="M147.112 38.276L143.7 21.693l2.409-.32 3.39 16.581z"></path>
<path stroke="#5471F9" stroke-width=".5" d="M147.112 38.276L143.7 21.693l2.409-.32 3.39 16.581z"></path>
<path fill="#5471F9" d="M154.681 42.097l3.674-16.528 2.33.686-3.691 16.517z"></path>
<path stroke="#5471F9" stroke-width=".5" d="M154.681 42.097l3.674-16.528 2.33.686-3.691 16.517z"></path>
<path fill="#5471F9" d="M160.062 48.656l10.075-13.638 1.852 1.565-10.086 13.62z"></path>
<path stroke="#5471F9" stroke-width=".5" d="M160.062 48.656l10.075-13.638 1.852 1.565-10.086 13.62z"></path>
<path fill="#5471F9" d="M162.295 56.817l14.79-8.357 1.05 2.182-14.794 8.336z"></path>
<path stroke="#5471F9" stroke-width=".5" d="M162.295 56.817l14.79-8.357 1.05 2.182-14.794 8.336z"></path>
<path fill="#5471F9" d="M161.014 65.196l16.922-1.697.074 2.418-16.916 1.677z"></path>
<path stroke="#5471F9" stroke-width=".5" d="M161.014 65.196l16.922-1.697.074 2.418-16.916 1.677z"></path>
<path fill="#5471F9" d="M156.424 72.312l16.152 5.301-.92 2.238-16.138-5.317z"></path>
<path stroke="#5471F9" stroke-width=".5" d="M156.424 72.312l16.152 5.301-.92 2.238-16.138-5.317z"></path>
<path fill="#5471F9" d="M149.331 76.977l12.615 11.353-1.751 1.677-12.597-11.363z"></path>
<path stroke="#5471F9" stroke-width=".5" d="M149.331 76.977l12.615 11.353-1.751 1.677-12.597-11.363z"></path>
<path fill="#5471F9" d="M140.96 78.353l6.81 15.512-2.29.811-6.788-15.513z"></path>
<path stroke="#5471F9" stroke-width=".5" d="M140.96 78.353l6.81 15.512-2.29.811-6.788-15.513z"></path>
<path fill="#5471F9" d="M132.715 76.253l-.02 16.927-2.424-.171.04-16.92z"></path>
<path stroke="#5471F9" stroke-width=".5" d="M132.715 76.253l-.02 16.927-2.424-.171.04-16.92z"></path>
<path fill="#5471F9" d="M126.049 70.982l-6.923 15.462-2.145-1.136 6.937-15.448z"></path>
<path stroke="#5471F9" stroke-width=".5" d="M126.049 70.982l-6.923 15.462-2.145-1.136 6.937-15.448z"></path>
<path fill="#5471F9" d="M122.106 63.49l-12.627 11.34-1.498-1.904 12.634-11.32z"></path>
<path stroke="#5471F9" stroke-width=".5" d="M122.106 63.49l-12.627 11.34-1.498-1.904 12.634-11.32z"></path>
<path fill="#5471F9" d="M121.573 55.072l-16.188 5.192-.582-2.348 16.187-5.17z"></path>
<path stroke="#5471F9" stroke-width=".5" d="M121.573 55.072l-16.188 5.192-.582-2.348 16.187-5.17z"></path>
<path fill="#5471F9" d="M124.507 47.11l-16.917-1.736.417-2.382 16.908 1.754z"></path>
<path stroke="#5471F9" stroke-width=".5" d="M124.507 47.11l-16.917-1.736.417-2.382 16.908 1.754z"></path>
<path fill="#5471F9" d="M130.436 41.046l-14.764-8.403 1.35-2.01 14.748 8.415z"></path>
<path stroke="#5471F9" stroke-width=".5" d="M130.436 41.046l-14.764-8.403 1.35-2.01 14.748 8.415z"></path>
<path fill="#5471F9" d="M138.337 37.891l-10.053-13.653 2.054-1.291 10.034 13.66z"></path>
<path stroke="#5471F9" stroke-width=".5" d="M138.337 37.891l-10.053-13.653 2.054-1.291 10.034 13.66z"></path>
<path fill="#40E7B8" d="M46.11 21.874l-.006-3.01 17.065-.033.005 3.01zm-22.642 0l-.006-3.01 17.064-.033.006 3.01zm-23.462 0L0 18.864l17.064-.033.006 3.01zM46.11 44.615l-.006-3.01 17.065-.034.005 3.01zm-22.642 0l-.006-3.01 17.064-.034.006 3.01zm-23.462 0L0 41.605l17.064-.034.006 3.01z"></path>
<path fill="#32E8B7" d="M21.897 17.472l-3.024.006L18.839.493l3.024-.005z"></path>
<path fill="#40E7B8" d="M21.897 40.008l-3.023.006-.035-16.984 3.024-.006zm0 23.352l-3.023.006-.035-16.984 3.024-.006z"></path>
<path fill="#32E8B7" d="M44.745 17.472l-3.024.006L41.687.493 44.71.488z"></path>
<path fill="#40E7B8" d="M44.745 40.008l-3.024.006-.034-16.984 3.023-.006zm0 23.352l-3.024.006-.034-16.984 3.023-.006z"></path>
</g>
</svg>