<svg id="Layer_4" xmlns="http://www.w3.org/2000/svg" viewBox="0 0 666.8 137.9"><style>.st0{fill:none}.st5{opacity:.2;fill:#fff;enable-background:new}.st13{fill:#757575}</style><g id="XMLID_2_"><g id="XMLID_3_"><g id="XMLID_4_"><path id="XMLID_33_" class="st0" d="M78.7 58L45.1 0H.3l37 64-37 64h44.8l33.5-58c2.2-3.7 2.2-8.3.1-12z"/><path id="XMLID_32_" d="M59.4 102.3L48.8 83.9 23.3 128h21.8l14.6-25.2-.3-.5z" fill="#ffc107"/><path id="XMLID_31_" class="st0" d="M78.7 58L45.1 0H.3l37 64-37 64h44.8l33.5-58c2.2-3.7 2.2-8.3.1-12z"/><path id="XMLID_30_" d="M37.3 64l11.5 19.9L23.3 128H.3l37-64z" fill="#0f9d58"/><path id="XMLID_29_" class="st0" d="M78.7 58L45.1 0H.3l37 64-37 64h44.8l33.5-58c2.2-3.7 2.2-8.3.1-12z"/><path id="XMLID_28_" d="M45.1 127H23.8l-.5 1h21.8l14.6-25.2-.3-.5L45.1 127z" opacity=".2" fill="#bf360c"/><path id="XMLID_27_" class="st0" d="M78.7 58L45.1 0H.3l37 64-37 64h44.8l33.5-58c2.2-3.7 2.2-8.3.1-12z"/><path id="XMLID_26_" d="M.8 127l-.5 1h23l.5-1H.8z" opacity=".2" fill="#263238"/><path id="XMLID_25_" class="st0" d="M78.7 58L45.1 0H.3l37 64-37 64h44.8l33.5-58c2.2-3.7 2.2-8.3.1-12z"/><path id="XMLID_24_" class="st5" d="M.3 128h.5l36.8-63.5-.3-.5-37 64z"/><path id="XMLID_23_" class="st0" d="M78.7 58L45.1 0H.3l37 64-37 64h44.8l33.5-58c2.2-3.7 2.2-8.3.1-12z"/><radialGradient id="XMLID_34_" cx="59.537" cy="972.374" r="44.264" gradientTransform="translate(0 -870)" gradientUnits="userSpaceOnUse"><stop offset="0" stop-color="#bf360c" stop-opacity=".2"/><stop offset="1" stop-color="#bf360c" stop-opacity=".02"/></radialGradient><path id="XMLID_22_" d="M59.7 102.8L48.8 83.9l-2.7 4.6 13.6 14.3z" fill="url(#XMLID_34_)"/><path id="XMLID_21_" class="st0" d="M78.7 58L45.1 0H.3l37 64-37 64h44.8l33.5-58c2.2-3.7 2.2-8.3.1-12z"/><radialGradient id="XMLID_35_" cx="59.411" cy="972.654" r="44.623" gradientTransform="translate(0 -870)" gradientUnits="userSpaceOnUse"><stop offset="0" stop-color="#263238" stop-opacity=".2"/><stop offset="1" stop-color="#263238" stop-opacity=".02"/></radialGradient><path id="XMLID_20_" d="M46.1 88.5l2.7-4.6L37.3 64l-5.5 9.5 14.3 15z" fill="url(#XMLID_35_)"/><path id="XMLID_19_" class="st0" d="M78.7 58L45.1 0H.3l37 64-37 64h44.8l33.5-58c2.2-3.7 2.2-8.3.1-12z"/><g id="XMLID_16_"><g id="XMLID_17_"><path id="XMLID_18_" d="M23.3 0H.3l59.4 102.8 11.5-19.9L23.3 0z" fill="#4285f4"/></g></g><path id="XMLID_15_" class="st0" d="M78.7 58L45.1 0H.3l37 64-37 64h44.8l33.5-58c2.2-3.7 2.2-8.3.1-12z"/><path id="XMLID_14_" d="M78.7 70c2.1-3.7 2.1-8.3 0-12L45.1 0H23.3l47.9 82.9L78.7 70z" fill="#db4437"/><path id="XMLID_13_" class="st0" d="M78.7 58L45.1 0H.3l37 64-37 64h44.8l33.5-58c2.2-3.7 2.2-8.3.1-12z"/><path id="XMLID_12_" d="M71.2 82.9l-.3-.5-11.2 19.4L.8 0H.3l59.4 102.8 11.5-19.9z" opacity=".2" fill="#1a237e"/><path id="XMLID_11_" class="st0" d="M78.7 58L45.1 0H.3l37 64-37 64h44.8l33.5-58c2.2-3.7 2.2-8.3.1-12z"/><path id="XMLID_10_" class="st5" d="M45.1 1l33.5 58c1 1.7 1.5 3.6 1.6 5.5.1-2.2-.4-4.5-1.6-6.5L45.1 0H.3l.6 1h44.2z"/><path id="XMLID_9_" class="st0" d="M78.7 58L45.1 0H.3l37 64-37 64h44.8l33.5-58c2.2-3.7 2.2-8.3.1-12z"/><path id="XMLID_8_" d="M71.2 82.9L78.7 70c1.2-2 1.7-4.3 1.6-6.5-.1 1.9-.6 3.8-1.6 5.5L71 82.4l.2.5z" opacity=".2" fill="#3e2723"/><path id="XMLID_6_" class="st0" d="M78.7 58L45.1 0H.3l37 64-37 64h44.8l33.5-58c2.2-3.7 2.2-8.3.1-12z"/><radialGradient id="XMLID_36_" cx="-.74" cy="871" r="134.35" gradientTransform="translate(0 -870)" gradientUnits="userSpaceOnUse"><stop offset="0" stop-color="#fff" stop-opacity=".1"/><stop offset="1" stop-color="#fff" stop-opacity="0"/></radialGradient><path id="XMLID_5_" d="M78.7 58L45.1 0H.3l37 64-37 64h44.8l33.5-58c2.2-3.7 2.2-8.3.1-12z" fill="url(#XMLID_36_)"/></g></g></g><path class="st13" d="M176.6 33.2c0 7-2.1 12.6-6.2 16.7-4.7 4.9-10.9 7.4-18.4 7.4-7.2 0-13.4-2.5-18.4-7.5-5.1-5-7.6-11.2-7.6-18.7s2.5-13.6 7.6-18.7c5.1-5 11.2-7.5 18.4-7.5 3.6 0 7 .7 10.3 2.1s5.9 3.3 7.8 5.6l-4.4 4.4c-3.3-4-7.9-6-13.7-6-5.3 0-9.8 1.9-13.7 5.6-3.8 3.7-5.8 8.5-5.8 14.5 0 5.9 1.9 10.7 5.8 14.5 3.9 3.7 8.4 5.6 13.7 5.6 5.6 0 10.3-1.9 14-5.6 2.4-2.4 3.8-5.8 4.2-10.1H152v-6h24.3c.1 1.2.3 2.5.3 3.7zm6.3 23V6.1h15.3c7.7 0 13.9 2.3 18.5 7 4.6 4.6 6.9 10.7 6.9 18.1s-2.3 13.5-6.9 18.1c-4.6 4.6-10.8 7-18.5 7h-15.3v-.1zm6.5-6.2h8.9c5.8 0 10.4-1.7 13.8-5 3.4-3.3 5.1-8 5.1-13.9s-1.7-10.6-5.1-13.9c-3.4-3.3-8-5-13.8-5h-8.9V50zm89-16.8c0 7-2.1 12.6-6.2 16.7-4.7 4.9-10.9 7.4-18.4 7.4-7.2 0-13.4-2.5-18.4-7.5-5.1-5-7.6-11.2-7.6-18.7s2.5-13.6 7.6-18.7c5.1-5 11.2-7.5 18.4-7.5 3.6 0 7 .7 10.3 2.1s5.9 3.3 7.8 5.6l-4.4 4.4c-3.3-4-7.9-6-13.7-6-5.3 0-9.8 1.9-13.7 5.6-3.8 3.7-5.8 8.5-5.8 14.5 0 5.9 1.9 10.7 5.8 14.5 3.9 3.7 8.4 5.6 13.7 5.6 5.6 0 10.3-1.9 14-5.6 2.4-2.4 3.8-5.8 4.2-10.1h-18.2v-6H278c.2 1.2.4 2.5.4 3.7zm23.2 23V6.1h15.3c7.7 0 13.9 2.3 18.5 7 4.6 4.6 6.9 10.7 6.9 18.1s-2.3 13.5-6.9 18.1-10.8 7-18.5 7h-15.3v-.1zM308 50h8.9c5.8 0 10.4-1.7 13.8-5s5.1-8 5.1-13.9-1.7-10.6-5.1-13.9-8-5-13.8-5H308V50zm55.4 7.3c-5.2 0-9.4-1.7-12.6-5.2s-4.9-7.8-4.9-13.1c0-5 1.6-9.3 4.7-12.9s7.2-5.4 12.1-5.4c5.1 0 9.2 1.7 12.2 5 3.1 3.3 4.6 7.7 4.6 13.3l-.1 1.2h-27.1c.2 3.5 1.3 6.2 3.5 8.2 2.1 2 4.6 3 7.5 3 4.6 0 7.7-2 9.4-5.9l5.7 2.4c-1.1 2.7-3 4.9-5.5 6.7-2.6 1.8-5.8 2.7-9.5 2.7zm9.2-22.4c-.1-2-1-3.8-2.7-5.6-1.7-1.8-4.1-2.7-7.4-2.7-2.4 0-4.4.7-6.2 2.2-1.8 1.5-3 3.5-3.6 6l19.9.1zM393 56.2l-13.9-34.3h7l10.1 26.6h.1l10.2-26.6h6.9l-14 34.3H393zm30.7 0h-6.4V6.1h29.3v6.2h-22.8v16.5h20.6v6h-20.6v21.4h-.1zm42.3 1.1c-5.2 0-9.4-1.7-12.6-5.2s-4.9-7.8-4.9-13.1c0-5 1.6-9.3 4.7-12.9 3.2-3.6 7.2-5.4 12.1-5.4 5.1 0 9.2 1.7 12.2 5 3.1 3.3 4.6 7.7 4.6 13.3l-.1 1.2h-27.1c.2 3.5 1.3 6.2 3.5 8.2 2.1 2 4.6 3 7.5 3 4.6 0 7.7-2 9.4-5.9l5.7 2.4c-1.1 2.7-3 4.9-5.5 6.7-2.7 1.8-5.8 2.7-9.5 2.7zm9.2-22.4c-.1-2-1-3.8-2.7-5.6-1.7-1.8-4.1-2.7-7.4-2.7-2.4 0-4.4.7-6.2 2.2-1.8 1.5-3 3.5-3.6 6l19.9.1zm23.9 22.4c-3.8 0-7-.9-9.5-2.8s-4.3-4.2-5.5-7l5.7-2.4c1.8 4.3 4.9 6.4 9.3 6.4 2 0 3.7-.4 4.9-1.3 1.3-.9 1.9-2.1 1.9-3.5 0-2.2-1.6-3.8-4.7-4.5l-6.9-1.7c-2.2-.6-4.3-1.6-6.2-3.2-2-1.6-2.9-3.7-2.9-6.3 0-3 1.3-5.5 4-7.4s5.9-2.8 9.6-2.8c3 0 5.7.7 8.1 2.1s4.1 3.3 5.1 5.9l-5.6 2.3c-1.3-3-3.9-4.6-7.8-4.6-1.9 0-3.5.4-4.8 1.2-1.3.8-2 1.9-2 3.2 0 2 1.5 3.3 4.5 4l6.8 1.6c3.2.7 5.6 2 7.1 3.9 1.5 1.8 2.3 3.9 2.3 6.2 0 3.1-1.3 5.6-3.8 7.7-2.3 2-5.6 3-9.6 3zm32.9-.5c-3.6 0-6.3-1-8.2-2.9s-2.8-4.6-2.8-8.1v-18h-6v-5.9h6V11.4h6.4v10.5h8.4v5.9h-8.4v17.5c0 3.7 1.5 5.6 4.6 5.6 1.2 0 2.1-.2 2.9-.6l2.2 5.5c-1.3.7-3 1-5.1 1z" id="XMLID_1_"/><path class="st13" d="M128.2 72.1h5.9v26.4h.3L157 72.1h7.6v.3l-18.5 21.4 19.9 28.1v.3h-7.2l-16.7-23.9-8 9.2v14.7h-5.9V72.1zM170.9 119.5c-2.3-2.5-3.4-6-3.4-10.6V86.5h6v21.6c0 3.4.8 5.9 2.3 7.5 1.5 1.6 3.6 2.4 6.2 2.4 2 0 3.8-.5 5.4-1.6 1.6-1.1 2.8-2.5 3.6-4.2.9-1.7 1.3-3.5 1.3-5.5V86.5h5.9v35.7h-5.7V117h-.3c-1 1.8-2.5 3.3-4.7 4.5-2.1 1.2-4.4 1.8-6.9 1.8-4.2 0-7.5-1.2-9.7-3.8zM208.4 121.8c-2.1-1-3.6-2.4-4.8-4.2-1.1-1.8-1.7-3.8-1.7-6.1 0-3.8 1.4-6.7 4.3-8.9 2.8-2.1 6.4-3.2 10.8-3.2 2.1 0 4.1.2 6 .7 1.8.5 3.3 1 4.2 1.6v-2.2c0-2.7-.9-4.8-2.8-6.4-1.9-1.6-4.2-2.4-7.1-2.4-2 0-3.8.4-5.5 1.3-1.7.9-3 2.1-4 3.6l-4.5-3.4c1.4-2.1 3.3-3.8 5.8-5 2.4-1.2 5.2-1.8 8.2-1.8 4.9 0 8.7 1.3 11.4 3.8 2.8 2.5 4.2 6 4.2 10.4v22.6h-5.7v-5.1h-.2c-1 1.7-2.6 3.2-4.6 4.4-2.1 1.2-4.4 1.8-6.9 1.8-2.7 0-5-.5-7.1-1.5zm13.2-5.3c1.7-1 3.1-2.4 4.1-4.1 1-1.7 1.5-3.6 1.5-5.7-1.1-.7-2.5-1.4-4.1-1.8-1.6-.5-3.4-.7-5.2-.7-3.3 0-5.7.7-7.4 2-1.7 1.4-2.5 3.1-2.5 5.2 0 2 .7 3.5 2.2 4.8 1.5 1.2 3.4 1.8 5.7 1.8 2.1.1 4-.4 5.7-1.5zM238.2 72.1h5.9v50.1h-5.9V72.1zM254.4 121.8c-2.1-1-3.6-2.4-4.8-4.2-1.1-1.8-1.7-3.8-1.7-6.1 0-3.8 1.4-6.7 4.3-8.9 2.8-2.1 6.4-3.2 10.8-3.2 2.1 0 4.1.2 6 .7 1.8.5 3.3 1 4.2 1.6v-2.2c0-2.7-.9-4.8-2.8-6.4-1.9-1.6-4.2-2.4-7.1-2.4-2 0-3.8.4-5.5 1.3-1.7.9-3 2.1-4 3.6l-4.5-3.4c1.4-2.1 3.3-3.8 5.8-5 2.4-1.2 5.2-1.8 8.2-1.8 4.9 0 8.7 1.3 11.4 3.8 2.8 2.5 4.2 6 4.2 10.4v22.6h-5.7v-5.1h-.3c-1 1.7-2.6 3.2-4.6 4.4-2.1 1.2-4.4 1.8-6.9 1.8-2.7 0-5-.5-7-1.5zm13.1-5.3c1.7-1 3.1-2.4 4.1-4.1 1-1.7 1.5-3.6 1.5-5.7-1.1-.7-2.5-1.4-4.1-1.8-1.6-.5-3.4-.7-5.2-.7-3.3 0-5.7.7-7.4 2-1.7 1.4-2.5 3.1-2.5 5.2 0 2 .7 3.5 2.2 4.8 1.5 1.2 3.4 1.8 5.7 1.8 2.1.1 4-.4 5.7-1.5zM298.5 72.1h5.9v44.5h22v5.7h-27.9V72.1zM333.1 119.5c-2.3-2.5-3.4-6-3.4-10.6V86.5h6v21.6c0 3.4.8 5.9 2.3 7.5 1.5 1.6 3.6 2.4 6.2 2.4 2 0 3.8-.5 5.4-1.6 1.6-1.1 2.8-2.5 3.6-4.2.9-1.7 1.3-3.5 1.3-5.5V86.5h6v35.7h-5.7V117h-.3c-1 1.8-2.5 3.3-4.7 4.5s-4.4 1.8-6.9 1.8c-4.3 0-7.6-1.2-9.8-3.8zM366.2 86.5h5.7v5.2h.3c1-1.8 2.6-3.3 4.6-4.5 2.1-1.2 4.2-1.8 6.5-1.8 2.6 0 4.9.6 6.8 1.9 1.9 1.3 3.3 2.9 4.2 5 1.3-2.1 2.9-3.8 5-5 2.1-1.3 4.5-1.9 7.2-1.9 4.1 0 7.2 1.2 9.3 3.7 2.1 2.5 3.1 5.9 3.1 10.2v22.9H413v-22c0-3.3-.7-5.7-2-7.2-1.4-1.5-3.4-2.2-6-2.2-1.8 0-3.4.5-4.8 1.5s-2.6 2.4-3.4 4.1-1.2 3.6-1.2 5.6v20.2h-6v-21.9c0-3.4-.7-5.8-2-7.3-1.4-1.5-3.3-2.2-6-2.2-1.8 0-3.4.5-4.8 1.6s-2.6 2.5-3.4 4.2c-.8 1.8-1.2 3.6-1.2 5.6v20h-6V86.5zM424.2 86.5h5.7v5.3h.3c1.1-1.8 2.7-3.3 4.9-4.6 2.2-1.2 4.6-1.9 7.3-1.9 3.2 0 6.1.8 8.7 2.4 2.6 1.6 4.7 3.9 6.2 6.8s2.2 6.1 2.2 9.7c0 3.6-.7 6.9-2.2 9.8-1.5 2.9-3.5 5.1-6.2 6.8-2.6 1.6-5.5 2.5-8.7 2.5-2.7 0-5.1-.6-7.3-1.9-2.2-1.2-3.8-2.7-4.9-4.5h-.3l.3 4.9v15.5h-6V86.5zm23.2 29.7c1.8-1.1 3.3-2.7 4.4-4.8 1.1-2.1 1.6-4.4 1.6-7.1 0-2.7-.5-5-1.6-7.1-1.1-2.1-2.6-3.7-4.4-4.8s-3.8-1.7-5.8-1.7-4 .6-5.8 1.7-3.3 2.7-4.3 4.8c-1.1 2.1-1.6 4.4-1.6 7.1 0 2.7.5 5.1 1.6 7.1 1.1 2.1 2.5 3.6 4.3 4.8s3.8 1.7 5.8 1.7 4-.5 5.8-1.7zM466.4 119.5c-2.3-2.5-3.4-6-3.4-10.6V86.5h6v21.6c0 3.4.8 5.9 2.3 7.5 1.5 1.6 3.6 2.4 6.2 2.4 2 0 3.8-.5 5.4-1.6 1.6-1.1 2.8-2.5 3.6-4.2.9-1.7 1.3-3.5 1.3-5.5V86.5h6v35.7h-5.7V117h-.3c-1 1.8-2.5 3.3-4.7 4.5s-4.4 1.8-6.9 1.8c-4.2 0-7.5-1.2-9.8-3.8zM499.6 86.5h5.7v5.7h.3c.7-2 2.1-3.6 4.1-4.9 2-1.3 4.1-1.9 6.3-1.9 1.6 0 3 .2 4.2.7v6.4c-1.5-.7-3.2-1.1-5-1.1-1.7 0-3.3.5-4.8 1.5-1.4 1-2.6 2.3-3.5 4-.9 1.7-1.3 3.4-1.3 5.4v20h-6V86.5zM534.8 116.2c1.4-1.4 4.3-4.4 8.6-8.7 4.3-4.4 7.3-7.5 9-9.3 2.4-2.6 4-4.6 4.8-6 .8-1.4 1.3-3.2 1.3-5.2 0-1.4-.4-2.7-1.1-4-.7-1.2-1.8-2.2-3.1-3-1.4-.8-3-1.2-4.9-1.2-2.5 0-4.5.7-6.1 2.2-1.5 1.5-2.5 3.1-3 4.8l-5.5-2.2c.5-1.5 1.3-3 2.5-4.7 1.2-1.6 2.8-3 4.9-4.1 2.1-1.1 4.5-1.7 7.3-1.7 2.9 0 5.5.6 7.8 1.9 2.3 1.3 4 2.9 5.3 5 1.3 2.1 1.9 4.4 1.9 6.8 0 4.9-2.6 10-7.7 15.2l-14.3 14.4H565v5.7h-30.2v-5.9zM577.9 120c-2.9-2.2-5.2-5.2-6.7-9-1.6-3.8-2.3-8-2.3-12.7 0-4.7.8-8.9 2.3-12.7 1.6-3.8 3.8-6.8 6.7-9 2.9-2.2 6.3-3.3 10.1-3.3s7.2 1.1 10.1 3.3c2.9 2.2 5.1 5.2 6.7 9 1.6 3.8 2.3 8 2.3 12.7 0 4.7-.8 8.9-2.3 12.7-1.6 3.8-3.8 6.8-6.7 9-2.9 2.2-6.3 3.3-10 3.3s-7.3-1.1-10.2-3.3zm16.9-4.9c2-1.7 3.5-4 4.5-7 1.1-2.9 1.6-6.2 1.6-9.9 0-3.6-.5-6.9-1.6-9.9-1.1-2.9-2.6-5.3-4.5-7-2-1.7-4.3-2.6-6.9-2.6s-5 .9-6.9 2.6c-2 1.7-3.5 4-4.6 7-1.1 2.9-1.6 6.2-1.6 9.9 0 3.6.5 6.9 1.6 9.9 1.1 2.9 2.6 5.3 4.6 7 2 1.7 4.3 2.6 6.9 2.6s5-.9 6.9-2.6zM622.1 82.6l-8.4 6-3.1-4.5 13.6-9.8h3.8v47.9h-6V82.6zM642.1 121.4c-2.5-1.3-4.4-3-5.8-5.1s-2.1-4.6-2.1-7.2c0-2.7.7-5.1 2.2-7.1 1.5-2 3.4-3.6 5.8-4.8v-.3c-1.9-1.1-3.4-2.6-4.6-4.4-1.2-1.8-1.8-3.8-1.8-5.8 0-2.5.6-4.8 1.9-6.9 1.2-2.1 3-3.7 5.2-4.8 2.2-1.2 4.7-1.8 7.5-1.8s5.2.6 7.5 1.8c2.2 1.2 3.9 2.8 5.2 4.8 1.2 2.1 1.9 4.3 1.9 6.9 0 2-.6 3.9-1.8 5.8-1.2 1.8-2.7 3.3-4.5 4.4v.3c2.4 1.2 4.3 2.8 5.8 4.8s2.2 4.4 2.2 7.1c0 2.7-.7 5.1-2.1 7.2-1.4 2.2-3.4 3.9-5.8 5.1-2.5 1.3-5.2 1.9-8.2 1.9-3.2 0-6-.6-8.5-1.9zm15.5-6.2c1.9-1.7 2.9-3.8 2.9-6.5 0-2.6-1-4.7-2.9-6.3-1.9-1.7-4.3-2.5-7.2-2.5-2.8 0-5.2.8-7.2 2.5s-2.9 3.8-2.9 6.3c0 2.7 1 4.8 2.9 6.5 2 1.7 4.4 2.5 7.2 2.5 2.9-.1 5.2-.9 7.2-2.5zm-1.1-23c1.6-1.4 2.4-3.3 2.4-5.7 0-2.3-.8-4.2-2.4-5.6-1.6-1.4-3.6-2.1-6.1-2.1-2.5 0-4.5.7-6.1 2.1-1.6 1.4-2.4 3.2-2.4 5.6 0 2.3.8 4.2 2.4 5.7 1.6 1.4 3.7 2.2 6.1 2.2 2.5-.1 4.5-.8 6.1-2.2z"/></svg>