<?xml version="1.0" encoding="utf-8"?>
<!-- Generator: Adobe Illustrator 23.0.0, SVG Export Plug-In . SVG Version: 6.00 Build 0)  -->
<svg version="1.1" id="Layer_1" xmlns="http://www.w3.org/2000/svg" xmlns:xlink="http://www.w3.org/1999/xlink" x="0px" y="0px"
	 viewBox="0 0 200 35" style="enable-background:new 0 0 200 35;" xml:space="preserve">
<style type="text/css">
	.st0{fill:#FBBC04;}
	.st1{fill:#34A853;}
	.st2{opacity:0.2;}
	.st3{clip-path:url(#SVGID_2_);}
	.st4{fill:#BD3A26;}
	.st5{clip-path:url(#SVGID_4_);}
	.st6{fill:#263238;}
	.st7{clip-path:url(#SVGID_6_);}
	.st8{fill:#FFFFFF;}
	.st9{clip-path:url(#SVGID_8_);}
	.st10{filter:url(#Adobe_OpacityMaskFilter);}
	.st11{clip-path:url(#SVGID_10_);fill:url(#path14176_1_);}
	.st12{mask:url(#mask_2_);}
	.st13{fill:url(#path14230_1_);}
	.st14{clip-path:url(#SVGID_12_);}
	.st15{filter:url(#Adobe_OpacityMaskFilter_1_);}
	.st16{clip-path:url(#SVGID_14_);fill:url(#path14190_1_);}
	.st17{mask:url(#mask-2_2_);}
	.st18{fill:url(#path14236_1_);}
	.st19{fill:#4285F4;}
	.st20{fill:#EA4335;}
	.st21{clip-path:url(#SVGID_16_);}
	.st22{fill:#2D2F78;}
	.st23{enable-background:new    ;}
</style>
<path id="path14208" class="st0" d="M18.6,27.8L15.9,23L9.3,34.4h5.6l3.8-6.5L18.6,27.8z"/>
<path id="path14210" class="st1" d="M12.9,17.9l3,5.1L9.3,34.4H3.4L12.9,17.9z"/>
<g id="g14216" class="st2">
	<g>
		<defs>
			<rect id="SVGID_1_" x="9.3" y="27.8" width="9.4" height="6.6"/>
		</defs>
		<clipPath id="SVGID_2_">
			<use xlink:href="#SVGID_1_"  style="overflow:visible;"/>
		</clipPath>
		<g id="g14214" class="st3">
			<path id="path14212" class="st4" d="M14.9,34.1H9.4l-0.1,0.3h5.6l3.8-6.5l-0.1-0.1L14.9,34.1z"/>
		</g>
	</g>
</g>
<g id="g14222" class="st2">
	<g>
		<defs>
			<rect id="SVGID_3_" x="3.4" y="34.1" width="6.1" height="0.3"/>
		</defs>
		<clipPath id="SVGID_4_">
			<use xlink:href="#SVGID_3_"  style="overflow:visible;"/>
		</clipPath>
		<g id="g14220" class="st5">
			<path id="path14218" class="st6" d="M3.5,34.1l-0.1,0.3h5.9l0.1-0.3H3.5z"/>
		</g>
	</g>
</g>
<g id="g14228" class="st2">
	<g>
		<defs>
			<rect id="SVGID_5_" x="3.4" y="17.9" width="9.6" height="16.5"/>
		</defs>
		<clipPath id="SVGID_6_">
			<use xlink:href="#SVGID_5_"  style="overflow:visible;"/>
		</clipPath>
		<g id="g14226" class="st7">
			<path id="path14224" class="st8" d="M3.4,34.4h0.1L13,18l-0.1-0.1L3.4,34.4z"/>
		</g>
	</g>
</g>
<g>
	<defs>
		<polygon id="SVGID_7_" points="15.2,24.2 18.7,27.9 15.9,23 		"/>
	</defs>
	<clipPath id="SVGID_8_">
		<use xlink:href="#SVGID_7_"  style="overflow:visible;"/>
	</clipPath>
	<g id="g14234" class="st9">
		<defs>
			<filter id="Adobe_OpacityMaskFilter" filterUnits="userSpaceOnUse" x="15.2" y="23" width="3.5" height="4.9">
				<feColorMatrix  type="matrix" values="1 0 0 0 0  0 1 0 0 0  0 0 1 0 0  0 0 0 1 0"/>
			</filter>
		</defs>
		<mask maskUnits="userSpaceOnUse" x="15.2" y="23" width="3.5" height="4.9" id="mask_2_">
			<g id="m_2_" class="st10">
				<g>
					<defs>
						<polygon id="SVGID_9_" points="200.8,399.9 263.3,465.4 213.1,378.7 						"/>
					</defs>
					<clipPath id="SVGID_10_">
						<use xlink:href="#SVGID_9_"  style="overflow:visible;"/>
					</clipPath>
					<g id="g14178_2_">
						
							<radialGradient id="path14176_1_" cx="-798.8167" cy="-744.5527" r="4.9942" gradientTransform="matrix(44.26 0 0 44.26 35619.3711 33420.0195)" gradientUnits="userSpaceOnUse">
							<stop  offset="0" style="stop-color:#333333"/>
							<stop  offset="1" style="stop-color:#060606"/>
						</radialGradient>
						<path id="path14176_2_" class="st11" d="M200.8,378.7h62.5v86.8h-62.5L200.8,378.7z"/>
					</g>
				</g>
			</g>
		</mask>
		<g id="g14232" class="st12">
			
				<radialGradient id="path14230_1_" cx="-731.5547" cy="-595.6015" r="4.5916" gradientTransform="matrix(2.4862 0 0 2.4862 1837.4946 1508.7126)" gradientUnits="userSpaceOnUse">
				<stop  offset="0" style="stop-color:#BD3A26"/>
				<stop  offset="1" style="stop-color:#BD3A26"/>
			</radialGradient>
			<path id="path14230" class="st13" d="M15.2,23h3.5v4.9h-3.5L15.2,23z"/>
		</g>
	</g>
</g>
<g>
	<defs>
		<polygon id="SVGID_11_" points="15.9,23 12.9,17.9 11.5,20.3 15.2,24.2 		"/>
	</defs>
	<clipPath id="SVGID_12_">
		<use xlink:href="#SVGID_11_"  style="overflow:visible;"/>
	</clipPath>
	<g id="g14240" class="st14">
		<defs>
			<filter id="Adobe_OpacityMaskFilter_1_" filterUnits="userSpaceOnUse" x="11.5" y="17.9" width="4.4" height="6.3">
				<feColorMatrix  type="matrix" values="1 0 0 0 0  0 1 0 0 0  0 0 1 0 0  0 0 0 1 0"/>
			</filter>
		</defs>
		<mask maskUnits="userSpaceOnUse" x="11.5" y="17.9" width="4.4" height="6.3" id="mask-2_2_">
			<g id="s_2_" class="st15">
				<g>
					<defs>
						<polygon id="SVGID_13_" points="213.1,378.7 160.3,287.4 135.1,331 200.8,399.9 						"/>
					</defs>
					<clipPath id="SVGID_14_">
						<use xlink:href="#SVGID_13_"  style="overflow:visible;"/>
					</clipPath>
					<g id="g14192_2_">
						
							<radialGradient id="path14190_1_" cx="-798.9821" cy="-744.7537" r="4.5854" gradientTransform="matrix(44.62 0 0 44.62 35913.6484 33697.7305)" gradientUnits="userSpaceOnUse">
							<stop  offset="0" style="stop-color:#333333"/>
							<stop  offset="1" style="stop-color:#060606"/>
						</radialGradient>
						<path id="path14190_2_" class="st16" d="M135.1,287.4h78v112.6h-78V287.4z"/>
					</g>
				</g>
			</g>
		</mask>
		<g id="g14238" class="st17">
			
				<radialGradient id="path14236_1_" cx="-732.2629" cy="-597.0042" r="4.5916" gradientTransform="matrix(2.5064 0 0 2.5064 1854.0245 1524.312)" gradientUnits="userSpaceOnUse">
				<stop  offset="0" style="stop-color:#263238"/>
				<stop  offset="1" style="stop-color:#263238"/>
			</radialGradient>
			<path id="path14236" class="st18" d="M11.5,17.9h4.4v6.3h-4.4V17.9z"/>
		</g>
	</g>
</g>
<path id="path14242" class="st19" d="M9.3,1.4H3.4l15.3,26.5l3-5.1l0,0L9.3,1.4z"/>
<path id="path14244" class="st20" d="M23.6,19.4c0.6-1,0.6-2.1,0-3.1l-8.7-15H9.3l12.4,21.4L23.6,19.4z"/>
<g id="g14250" class="st2">
	<g>
		<defs>
			<rect id="SVGID_15_" x="3.4" y="1.4" width="18.3" height="26.5"/>
		</defs>
		<clipPath id="SVGID_16_">
			<use xlink:href="#SVGID_15_"  style="overflow:visible;"/>
		</clipPath>
		<g id="g14248" class="st21">
			<path id="path14246" class="st22" d="M21.7,22.8l-0.1-0.1l-2.9,5L3.5,1.4H3.4l15.3,26.5L21.7,22.8L21.7,22.8z"/>
		</g>
	</g>
</g>
<g class="st23">
	<path d="M39.1,25.3c-1.5-0.9-2.7-2.1-3.6-3.6c-0.9-1.5-1.3-3.2-1.3-5.1s0.4-3.6,1.3-5.1c0.9-1.5,2.1-2.7,3.6-3.6s3.2-1.3,5-1.3
		c1.4,0,2.8,0.3,4,0.8c1.2,0.5,2.3,1.2,3.1,2.2l-2.1,2.1c-0.6-0.7-1.4-1.2-2.2-1.6c-0.9-0.4-1.8-0.6-2.9-0.6c-1.2,0-2.4,0.3-3.4,0.9
		c-1.1,0.6-1.9,1.4-2.6,2.5c-0.6,1.1-1,2.3-1,3.7c0,1.4,0.3,2.6,1,3.7c0.6,1.1,1.5,1.9,2.6,2.5s2.2,0.9,3.5,0.9
		c1.1,0,2.1-0.2,2.8-0.5c0.8-0.3,1.4-0.8,2.1-1.4c0.4-0.4,0.7-0.9,1-1.5c0.3-0.6,0.5-1.2,0.5-1.9h-6.5v-2.7h9.3
		c0.1,0.5,0.1,1,0.1,1.5c0,1.2-0.2,2.4-0.6,3.5c-0.4,1.1-1,2.1-1.8,2.9c-1.8,1.9-4.1,2.8-7.1,2.8C42.3,26.6,40.6,26.2,39.1,25.3z"/>
	<path d="M57,7.1h6.1c2,0,3.7,0.4,5.2,1.2c1.5,0.8,2.6,1.9,3.4,3.4c0.8,1.4,1.2,3.1,1.2,5s-0.4,3.5-1.2,5c-0.8,1.4-1.9,2.6-3.4,3.4
		c-1.5,0.8-3.2,1.2-5.2,1.2H57V7.1z M63,23.4c2.1,0,3.8-0.6,5-1.8c1.2-1.2,1.8-2.8,1.8-4.9c0-2.1-0.6-3.7-1.8-4.9
		c-1.2-1.2-2.9-1.8-5-1.8h-3.1v13.4H63z"/>
	<path d="M80.2,25.3c-1.5-0.9-2.7-2.1-3.6-3.6c-0.9-1.5-1.3-3.2-1.3-5.1s0.4-3.6,1.3-5.1c0.9-1.5,2.1-2.7,3.6-3.6
		c1.5-0.9,3.2-1.3,5-1.3c1.4,0,2.8,0.3,4,0.8c1.2,0.5,2.3,1.2,3.1,2.2l-2.1,2.1c-0.6-0.7-1.4-1.2-2.2-1.6c-0.9-0.4-1.8-0.6-2.9-0.6
		c-1.2,0-2.4,0.3-3.4,0.9c-1.1,0.6-1.9,1.4-2.6,2.5c-0.6,1.1-1,2.3-1,3.7c0,1.4,0.3,2.6,1,3.7c0.6,1.1,1.5,1.9,2.6,2.5
		c1.1,0.6,2.2,0.9,3.5,0.9c1.1,0,2.1-0.2,2.8-0.5c0.8-0.3,1.4-0.8,2.1-1.4c0.4-0.4,0.7-0.9,1-1.5c0.3-0.6,0.5-1.2,0.5-1.9h-6.5v-2.7
		h9.3c0.1,0.5,0.1,1,0.1,1.5c0,1.2-0.2,2.4-0.6,3.5c-0.4,1.1-1,2.1-1.8,2.9c-1.8,1.9-4.1,2.8-7.1,2.8C83.4,26.6,81.8,26.2,80.2,25.3
		z"/>
</g>
<g>
	<path d="M104.2,7.1h5.8c2,0,3.7,0.4,5.1,1.2c1.5,0.8,2.6,1.9,3.4,3.4c0.8,1.4,1.2,3.1,1.2,5s-0.4,3.5-1.2,5
		c-0.8,1.4-1.9,2.6-3.4,3.4c-1.5,0.8-3.2,1.2-5.1,1.2h-5.8V7.1z M109.9,24c2.3,0,4-0.6,5.4-1.9c1.3-1.3,2-3.1,2-5.4
		c0-2.3-0.7-4.1-2-5.4c-1.3-1.3-3.1-1.9-5.4-1.9h-3.5V24H109.9z"/>
	<path d="M124.6,25.7c-1-0.6-1.8-1.5-2.4-2.6c-0.6-1.1-0.9-2.3-0.9-3.7c0-1.3,0.3-2.5,0.8-3.6c0.5-1.1,1.3-2,2.3-2.6
		c1-0.7,2.1-1,3.5-1c1.3,0,2.5,0.3,3.5,0.9c1,0.6,1.7,1.4,2.2,2.5c0.5,1,0.8,2.2,0.8,3.6c0,0.3,0,0.5-0.1,0.7h-10.7
		c0.1,1,0.3,1.9,0.7,2.6c0.4,0.7,1,1.2,1.7,1.6c0.7,0.4,1.4,0.5,2.1,0.5c1.7,0,3.1-0.8,4-2.5l1.9,0.9c-0.6,1.1-1.4,2-2.4,2.6
		c-1,0.6-2.2,1-3.6,1C126.8,26.6,125.6,26.3,124.6,25.7z M132,18c0-0.6-0.2-1.1-0.5-1.7c-0.3-0.6-0.7-1-1.3-1.4
		c-0.6-0.4-1.4-0.6-2.3-0.6c-1.1,0-2,0.3-2.7,1c-0.7,0.7-1.2,1.6-1.5,2.7H132z"/>
	<path d="M135.3,12.6h2.4l4.2,10.9h0.1l4.3-10.9h2.4l-5.5,13.6h-2.3L135.3,12.6z"/>
	<path d="M150.9,7.1h11v2.2h-8.8v6.5h7.9v2.1h-7.9v8.3h-2.2V7.1z"/>
	<path d="M166.4,25.7c-1-0.6-1.8-1.5-2.4-2.6c-0.6-1.1-0.9-2.3-0.9-3.7c0-1.3,0.3-2.5,0.8-3.6c0.5-1.1,1.3-2,2.3-2.6
		c1-0.7,2.1-1,3.5-1c1.3,0,2.5,0.3,3.5,0.9c1,0.6,1.7,1.4,2.2,2.5c0.5,1,0.8,2.2,0.8,3.6c0,0.3,0,0.5-0.1,0.7h-10.7
		c0.1,1,0.3,1.9,0.7,2.6c0.4,0.7,1,1.2,1.7,1.6c0.7,0.4,1.4,0.5,2.1,0.5c1.7,0,3.1-0.8,4-2.5l1.9,0.9c-0.6,1.1-1.4,2-2.4,2.6
		c-1,0.6-2.2,1-3.6,1C168.6,26.6,167.4,26.3,166.4,25.7z M173.8,18c0-0.6-0.2-1.1-0.5-1.7c-0.3-0.6-0.7-1-1.3-1.4
		c-0.6-0.4-1.4-0.6-2.3-0.6c-1.1,0-2,0.3-2.7,1c-0.7,0.7-1.2,1.6-1.5,2.7H173.8z"/>
	<path d="M180,25.6c-1-0.7-1.7-1.6-2.1-2.6l2-0.9c0.3,0.8,0.8,1.4,1.5,1.9c0.7,0.4,1.4,0.7,2.2,0.7c0.9,0,1.6-0.2,2.2-0.5
		c0.6-0.3,0.9-0.8,0.9-1.5c0-0.6-0.2-1-0.7-1.4c-0.5-0.3-1.2-0.6-2.3-0.9l-1.7-0.4c-1.1-0.3-2-0.7-2.7-1.4c-0.7-0.6-1-1.5-1-2.5
		c0-0.8,0.2-1.5,0.7-2.1c0.5-0.6,1.1-1.1,1.9-1.4c0.8-0.3,1.6-0.5,2.5-0.5c1.2,0,2.2,0.3,3.2,0.8c0.9,0.5,1.6,1.2,2,2.2l-2,0.9
		c-0.6-1.2-1.7-1.8-3.2-1.8c-0.7,0-1.4,0.2-2,0.5c-0.6,0.3-0.8,0.8-0.8,1.3c0,0.5,0.2,0.9,0.6,1.2c0.4,0.3,1,0.6,1.8,0.8l2,0.5
		c1.3,0.3,2.3,0.8,3,1.5c0.7,0.7,1,1.5,1,2.4c0,0.8-0.2,1.6-0.7,2.2s-1.1,1.1-1.9,1.5c-0.8,0.3-1.7,0.5-2.7,0.5
		C182.2,26.6,181,26.3,180,25.6z"/>
	<path d="M195.1,26.4c-0.5-0.2-0.9-0.4-1.2-0.7c-0.4-0.3-0.6-0.7-0.8-1.2c-0.2-0.5-0.3-1-0.3-1.7v-8.1h-2.4v-2.1h2.4V8.8h2.3v3.8
		h3.3v2.1h-3.3v7.6c0,0.8,0.1,1.3,0.4,1.7c0.3,0.4,0.8,0.6,1.5,0.6c0.5,0,1-0.2,1.5-0.5v2.2c-0.3,0.1-0.5,0.2-0.8,0.3
		c-0.3,0.1-0.6,0.1-1.1,0.1C196.1,26.6,195.6,26.5,195.1,26.4z"/>
</g>
</svg>
