<?xml version="1.0" encoding="utf-8"?>
<!-- Generator: Adobe Illustrator 23.0.0, SVG Export Plug-In . SVG Version: 6.00 Build 0)  -->
<svg version="1.1" id="Layer_1" xmlns="http://www.w3.org/2000/svg" xmlns:xlink="http://www.w3.org/1999/xlink" x="0px" y="0px"
	 viewBox="0 0 360 35" style="enable-background:new 0 0 360 35;" xml:space="preserve">
<style type="text/css">
	.st0{fill:#F89E1E;}
	.st1{opacity:0.12;clip-path:url(#SVGID_2_);}
	.st2{clip-path:url(#SVGID_4_);}
	.st3{filter:url(#Adobe_OpacityMaskFilter);}
	.st4{mask:url(#mask1419_2_);}
	.st5{fill:#F27D21;}
	.st6{opacity:0.2;clip-path:url(#SVGID_8_);}
	.st7{filter:url(#Adobe_OpacityMaskFilter_2_);}
	.st8{mask:url(#mask1443_2_);}
	.st9{fill:#FFCB2D;}
	.st10{opacity:0.2;clip-path:url(#SVGID_12_);}
	.st11{fill:#FFFFFF;}
	.st12{opacity:0.2;clip-path:url(#SVGID_14_);}
	.st13{fill:#A52A23;}
	.st14{enable-background:new    ;}
</style>
<g>
	<g id="g1469" transform="matrix(0.38865341,0,0,0.38865341,311.8307,16.741981)">
		<path id="path1467" class="st0" d="M-796.2,29.2l11-69.8c0.3-1.9,2.9-2.4,3.8-0.7l11.3,21.1l4.5-8.6c0.3-0.7,1-1.1,1.8-1.1
			c0.8,0,1.4,0.4,1.8,1.1l30.5,58H-796.2z"/>
	</g>
	<g id="g1491" transform="matrix(0.38865341,0,0,0.38865341,-11.603912,-648.1023)">
		<g id="g1471">
		</g>
		<g id="g1489">
			<g>
				<defs>
					<rect id="SVGID_1_" x="45.5" y="1703" width="16.9" height="21.7"/>
				</defs>
				<clipPath id="SVGID_2_">
					<use xlink:href="#SVGID_1_"  style="overflow:visible;"/>
				</clipPath>
				<g id="g1487" class="st1">
					<g id="g1485">
						<g>
							<defs>
								<rect id="SVGID_3_" x="45.5" y="1703.1" width="16.9" height="21.7"/>
							</defs>
							<clipPath id="SVGID_4_">
								<use xlink:href="#SVGID_3_"  style="overflow:visible;"/>
							</clipPath>
							<g id="g1483" class="st2">
								<g id="g1481">
									<g id="g1473">
									</g>
									<defs>
										<filter id="Adobe_OpacityMaskFilter" filterUnits="userSpaceOnUse" x="32.3" y="1686" width="43.4" height="55.9">
											<feColorMatrix  type="matrix" values="1 0 0 0 0  0 1 0 0 0  0 0 1 0 0  0 0 0 1 0"/>
										</filter>
									</defs>
									<mask maskUnits="userSpaceOnUse" x="32.3" y="1686" width="43.4" height="55.9" id="mask1419_2_">
										<g id="g1429_2_" class="st3">
											<g>
												<defs>
													<rect id="SVGID_5_" x="767.6" y="4607.7" width="32.6" height="41.9"/>
												</defs>
												<clipPath id="SVGID_6_">
													<use xlink:href="#SVGID_5_"  style="overflow:visible;"/>
												</clipPath>
												<g id="g1427_2_">
													<g id="g1425_2_">
														<g id="g1423_2_" transform="matrix(48.92451,0,0,62.983277,827.94617,1708.3658)">
															<g style="clip-path:url(#SVGID_6_);enable-background:new    ;">
																
																	<image style="overflow:visible;" width="87" height="112" id="image1421_2_" xlink:href="33C65D27A218BEAC.png"  transform="matrix(1.968760e-02 0 0 -1.529305e-02 -1.7563 47.2229)">
																</image>
															</g>
														</g>
													</g>
												</g>
											</g>
										</g>
									</mask>
									<g id="g1479" class="st4">
										<g id="g1477" transform="matrix(48.92451,0,0,62.983277,827.94617,1708.3658)">
											<defs>
												<filter id="Adobe_OpacityMaskFilter_1_" filterUnits="userSpaceOnUse" x="-16.3" y="-0.4" width="0.9" height="0.9">
													<feColorMatrix  type="matrix" values="1 0 0 0 0  0 1 0 0 0  0 0 1 0 0  0 0 0 1 0"/>
												</filter>
											</defs>
											<mask maskUnits="userSpaceOnUse" x="-16.3" y="-0.4" width="0.9" height="0.9" id="mask1431_2_">
												
													<image style="overflow:visible;filter:url(#Adobe_OpacityMaskFilter_1_);enable-background:new    ;" width="87" height="112" id="image1433_2_" xlink:href="33C65D27A218BEAC.jpg"  transform="matrix(4.024077e-04 0 0 2.428112e-04 -30.7423 -0.9487)">
												</image>
											</mask>
											
												<g transform="matrix(1.020220e-02 0 0 7.924926e-03 -16.2633 -0.3557)" style="mask:url(#mask1431_2_);enable-background:new    ;">
												
													<image style="overflow:visible;" width="87" height="112" id="image1475_2_" xlink:href="33C65D27A218BEAB.png"  transform="matrix(1.020220e-02 0 0 7.924926e-03 -16.2633 -0.3557)">
												</image>
											</g>
										</g>
									</g>
								</g>
							</g>
						</g>
					</g>
				</g>
			</g>
		</g>
	</g>
	<g id="g1495" transform="matrix(0.38865341,0,0,0.38865341,328.38547,28.650555)">
		<path id="path1493" class="st5" d="M-800.9-28.6l-11.8-22.2l-26,49.4L-800.9-28.6z"/>
	</g>
	<g id="g1513" transform="matrix(0.38865341,0,0,0.38865341,-11.603912,-648.1023)">
		<g id="g1497">
		</g>
		<g id="g1511">
			<g>
				<defs>
					<rect id="SVGID_7_" x="55.8" y="1705.6" width="27.2" height="30.1"/>
				</defs>
				<clipPath id="SVGID_8_">
					<use xlink:href="#SVGID_7_"  style="overflow:visible;"/>
				</clipPath>
				<g id="g1509" class="st6">
					<g id="g1507">
						<g id="g1499">
						</g>
						<defs>
							<filter id="Adobe_OpacityMaskFilter_2_" filterUnits="userSpaceOnUse" x="34.4" y="1681.9" width="70.1" height="77.6">
								<feColorMatrix  type="matrix" values="1 0 0 0 0  0 1 0 0 0  0 0 1 0 0  0 0 0 1 0"/>
							</filter>
						</defs>
						<mask maskUnits="userSpaceOnUse" x="34.4" y="1681.9" width="70.1" height="77.6" id="mask1443_2_">
							<g id="g1453_2_" class="st7">
								<g>
									<defs>
										<rect id="SVGID_9_" x="787.4" y="4586.5" width="52.5" height="58.2"/>
									</defs>
									<clipPath id="SVGID_10_">
										<use xlink:href="#SVGID_9_"  style="overflow:visible;"/>
									</clipPath>
									<g id="g1451_2_">
										<g id="g1449_2_">
											<g id="g1447_2_" transform="matrix(78.925864,0,0,87.382206,830.31366,1688.5062)">
												<g transform="matrix(1 0 0 1 0 0)" style="clip-path:url(#SVGID_10_);enable-background:new    ;">
													
														<image style="overflow:visible;" width="140" height="155" id="image1445_2_" xlink:href="33C65D27A218BEB4.png"  transform="matrix(1.223444e-02 0 0 -1.105046e-02 -1.0673 34.3535)">
													</image>
												</g>
											</g>
										</g>
									</g>
								</g>
							</g>
						</mask>
						<g id="g1505" class="st8">
							<g id="g1503" transform="matrix(78.925864,0,0,87.382206,830.31366,1688.5062)">
								<defs>
									<filter id="Adobe_OpacityMaskFilter_3_" filterUnits="userSpaceOnUse" x="-10.1" y="-0.1" width="0.9" height="0.9">
										<feColorMatrix  type="matrix" values="1 0 0 0 0  0 1 0 0 0  0 0 1 0 0  0 0 0 1 0"/>
									</filter>
								</defs>
								<mask maskUnits="userSpaceOnUse" x="-10.1" y="-0.1" width="0.9" height="0.9" id="mask1455_2_">
									
										<image style="overflow:visible;filter:url(#Adobe_OpacityMaskFilter_3_);enable-background:new    ;" width="140" height="155" id="image1457_2_" xlink:href="33C65D27A218BEB4.jpg"  transform="matrix(1.550117e-04 0 0 1.264612e-04 -19.0865 -0.4565)">
									</image>
								</mask>
								
									<g transform="matrix(6.339940e-03 0 0 5.726397e-03 -10.0846 -7.522015e-02)" style="mask:url(#mask1455_2_);enable-background:new    ;">
									
										<image style="overflow:visible;" width="140" height="155" id="image1501_2_" xlink:href="33C65D27A218BEB5.png"  transform="matrix(6.339940e-03 0 0 5.726397e-03 -10.0846 -7.522015e-02)">
									</image>
								</g>
							</g>
						</g>
					</g>
				</g>
			</g>
		</g>
	</g>
	<g id="g1517" transform="matrix(0.38865341,0,0,0.38865341,340.15929,16.741981)">
		<path id="path1515" class="st9" d="M-804.3,29.2l-8.4-51.7c-0.1-0.7-0.7-1.4-1.4-1.6c-0.7-0.2-1.5,0-2.1,0.5L-869,29.2l29.3,16.4
			c1.8,1,4.1,1,5.9,0L-804.3,29.2z"/>
	</g>
	<g id="g1529" transform="matrix(0.38865341,0,0,0.38865341,-11.603912,-648.1023)">
		<g id="g1519">
		</g>
		<g id="g1527">
			<g>
				<defs>
					<rect id="SVGID_11_" x="55.8" y="1690.2" width="25.2" height="27.9"/>
				</defs>
				<clipPath id="SVGID_12_">
					<use xlink:href="#SVGID_11_"  style="overflow:visible;"/>
				</clipPath>
				<g id="g1525" class="st10">
					<g id="g1523" transform="translate(832.3071,1710.7491)">
						<path id="path1521" class="st11" d="M-796.2,29l10.9-69.2c0.3-1.9,2.9-2.4,3.8-0.7l11.3,21.1l4.5-8.6c0.3-0.7,1-1.1,1.8-1.1
							c0.8,0,1.4,0.4,1.8,1.1l8.1,15.3L-796.2,29z M-740-22.6c-0.1-0.7-0.7-1.4-1.4-1.6c-0.7-0.2-1.5,0-2.1,0.5l-10.5,10.5
							l-8.3-15.7c-0.3-0.7-1-1.1-1.8-1.1c-0.8,0-1.4,0.4-1.8,1.1l-4.5,8.6l-11.4-21.1c-0.9-1.7-3.5-1.3-3.8,0.7l-10.9,69.8h-0.1
							l0.1,0l0.3,0.2l42.1-42l10.5-10.5c0.5-0.5,1.3-0.7,2.1-0.5c0.7,0.2,1.3,0.8,1.4,1.6l8.3,51.2l0.1,0L-740-22.6z"/>
					</g>
				</g>
			</g>
		</g>
	</g>
	<g id="g1541" transform="matrix(0.38865341,0,0,0.38865341,-11.603912,-648.1023)">
		<g id="g1531">
		</g>
		<g id="g1539">
			<g>
				<defs>
					<rect id="SVGID_13_" x="55.8" y="1744.8" width="25.1" height="6.8"/>
				</defs>
				<clipPath id="SVGID_14_">
					<use xlink:href="#SVGID_13_"  style="overflow:visible;"/>
				</clipPath>
				<g id="g1537" class="st12">
					<g id="g1535" transform="translate(871.8262,1692.7618)">
						<path id="path1533" class="st13" d="M-800.6,63c-1.8,1-4.1,1-5.9,0l-29.2-16.3l-0.1,0.5l29.3,16.4c1.8,1,4.1,1,5.9,0
							l29.5-16.4l-0.1-0.5L-800.6,63z"/>
					</g>
				</g>
			</g>
		</g>
	</g>
</g>
<g class="st14">
	<path d="M37.7,9.2h11v2.2H40v6.5h7.9V20H40v8.3h-2.2V9.2z"/>
	<path d="M51.3,11.7c-0.3-0.3-0.5-0.7-0.5-1.1c0-0.4,0.2-0.8,0.5-1.1C51.7,9.1,52,9,52.5,9c0.4,0,0.8,0.2,1.1,0.5
		c0.3,0.3,0.5,0.7,0.5,1.1c0,0.4-0.2,0.8-0.5,1.1c-0.3,0.3-0.7,0.5-1.2,0.5C52,12.2,51.7,12,51.3,11.7z M51.4,14.7h2.2v13.6h-2.2
		V14.7z"/>
	<path d="M57.2,14.7h2.2v2.2h0.1c0.3-0.7,0.8-1.4,1.5-1.9c0.8-0.5,1.6-0.7,2.4-0.7c0.6,0,1.2,0.1,1.6,0.3V17
		c-0.6-0.3-1.2-0.4-1.9-0.4c-0.7,0-1.3,0.2-1.8,0.6c-0.5,0.4-1,0.9-1.3,1.5c-0.3,0.6-0.5,1.3-0.5,2v7.6h-2.3V14.7z"/>
	<path d="M68.9,27.7c-1-0.6-1.8-1.5-2.4-2.6c-0.6-1.1-0.9-2.3-0.9-3.7c0-1.3,0.3-2.5,0.8-3.6c0.5-1.1,1.3-2,2.3-2.6
		c1-0.7,2.1-1,3.5-1c1.3,0,2.5,0.3,3.5,0.9c1,0.6,1.7,1.4,2.3,2.5c0.5,1,0.8,2.2,0.8,3.6c0,0.3,0,0.5-0.1,0.7H67.9
		c0.1,1,0.3,1.9,0.7,2.6c0.4,0.7,1,1.2,1.7,1.6c0.7,0.4,1.4,0.5,2.1,0.5c1.7,0,3.1-0.8,4-2.5l1.9,0.9c-0.6,1.1-1.4,2-2.4,2.6
		s-2.2,1-3.6,1C71.1,28.7,69.9,28.4,68.9,27.7z M76.3,20c0-0.6-0.2-1.1-0.5-1.7c-0.3-0.6-0.7-1-1.3-1.4c-0.6-0.4-1.4-0.6-2.3-0.6
		c-1.1,0-2,0.3-2.7,1C68.7,18,68.3,18.9,68,20H76.3z"/>
	<path d="M85.5,28c-0.8-0.5-1.4-1-1.9-1.7h-0.1v2h-2.2V9.2h2.3v5.6l-0.1,1.9h0.1c0.4-0.7,1-1.3,1.9-1.7c0.8-0.5,1.8-0.7,2.8-0.7
		c1.2,0,2.3,0.3,3.3,0.9c1,0.6,1.8,1.5,2.3,2.6c0.6,1.1,0.9,2.3,0.9,3.7c0,1.4-0.3,2.6-0.9,3.7c-0.6,1.1-1.3,1.9-2.3,2.6
		s-2.1,0.9-3.3,0.9C87.2,28.7,86.3,28.4,85.5,28z M90.2,26c0.7-0.4,1.2-1,1.7-1.8c0.4-0.8,0.6-1.7,0.6-2.7s-0.2-1.9-0.6-2.7
		c-0.4-0.8-1-1.4-1.7-1.8s-1.4-0.6-2.2-0.6c-0.8,0-1.5,0.2-2.2,0.6s-1.2,1-1.7,1.8c-0.4,0.8-0.6,1.7-0.6,2.7c0,1,0.2,1.9,0.6,2.7
		c0.4,0.8,1,1.4,1.7,1.8c0.7,0.4,1.4,0.6,2.2,0.6C88.8,26.6,89.5,26.4,90.2,26z"/>
	<path d="M99.1,28.1c-0.8-0.4-1.4-0.9-1.8-1.6c-0.4-0.7-0.6-1.5-0.6-2.3c0-1.4,0.5-2.6,1.6-3.4c1.1-0.8,2.5-1.2,4.1-1.2
		c0.8,0,1.6,0.1,2.3,0.3c0.7,0.2,1.2,0.4,1.6,0.6v-0.8c0-1-0.4-1.8-1.1-2.4c-0.7-0.6-1.6-0.9-2.7-0.9c-0.8,0-1.5,0.2-2.1,0.5
		c-0.6,0.3-1.1,0.8-1.5,1.4l-1.7-1.3c0.5-0.8,1.3-1.5,2.2-1.9c0.9-0.5,2-0.7,3.1-0.7c1.8,0,3.3,0.5,4.4,1.5c1.1,1,1.6,2.3,1.6,4v8.6
		h-2.2v-1.9h-0.1c-0.4,0.7-1,1.2-1.8,1.7c-0.8,0.5-1.7,0.7-2.6,0.7C100.7,28.7,99.8,28.5,99.1,28.1z M104.1,26.1
		c0.7-0.4,1.2-0.9,1.6-1.6c0.4-0.7,0.6-1.4,0.6-2.2c-0.4-0.3-0.9-0.5-1.6-0.7c-0.6-0.2-1.3-0.3-2-0.3c-1.2,0-2.2,0.3-2.8,0.8
		c-0.6,0.5-0.9,1.2-0.9,2c0,0.7,0.3,1.3,0.9,1.8c0.6,0.5,1.3,0.7,2.2,0.7C102.7,26.7,103.4,26.5,104.1,26.1z"/>
	<path d="M112.5,27.6c-1-0.7-1.7-1.6-2.1-2.6l2-0.9c0.3,0.8,0.8,1.4,1.5,1.9c0.7,0.4,1.4,0.7,2.2,0.7c0.9,0,1.6-0.2,2.2-0.5
		c0.6-0.3,0.9-0.8,0.9-1.5c0-0.6-0.2-1-0.7-1.4c-0.5-0.3-1.2-0.6-2.3-0.9l-1.7-0.4c-1.1-0.3-2-0.7-2.7-1.4c-0.7-0.6-1-1.5-1-2.5
		c0-0.8,0.2-1.5,0.7-2.1c0.5-0.6,1.1-1.1,1.9-1.4c0.8-0.3,1.6-0.5,2.5-0.5c1.2,0,2.2,0.3,3.2,0.8c0.9,0.5,1.6,1.2,2,2.2l-2,0.9
		c-0.6-1.2-1.7-1.8-3.2-1.8c-0.7,0-1.4,0.2-2,0.5c-0.6,0.3-0.8,0.8-0.8,1.3c0,0.5,0.2,0.9,0.6,1.2c0.4,0.3,1,0.6,1.8,0.8l2,0.5
		c1.3,0.3,2.3,0.8,3,1.5c0.7,0.7,1,1.5,1,2.4c0,0.8-0.2,1.6-0.7,2.2c-0.5,0.6-1.1,1.1-1.9,1.5s-1.7,0.5-2.7,0.5
		C114.7,28.7,113.4,28.3,112.5,27.6z"/>
	<path d="M126.7,27.7c-1-0.6-1.8-1.5-2.4-2.6c-0.6-1.1-0.9-2.3-0.9-3.7c0-1.3,0.3-2.5,0.8-3.6c0.5-1.1,1.3-2,2.3-2.6
		c1-0.7,2.1-1,3.5-1c1.3,0,2.5,0.3,3.5,0.9c1,0.6,1.7,1.4,2.3,2.5c0.5,1,0.8,2.2,0.8,3.6c0,0.3,0,0.5-0.1,0.7h-10.7
		c0.1,1,0.3,1.9,0.7,2.6c0.4,0.7,1,1.2,1.7,1.6c0.7,0.4,1.4,0.5,2.1,0.5c1.7,0,3.1-0.8,4-2.5l1.9,0.9c-0.6,1.1-1.4,2-2.4,2.6
		c-1,0.6-2.2,1-3.6,1C128.9,28.7,127.7,28.4,126.7,27.7z M134.1,20c0-0.6-0.2-1.1-0.5-1.7c-0.3-0.6-0.7-1-1.3-1.4
		c-0.6-0.4-1.4-0.6-2.3-0.6c-1.1,0-2,0.3-2.7,1c-0.7,0.7-1.2,1.6-1.5,2.7H134.1z"/>
	<path d="M146.2,27.3c-1.2-0.9-2.1-2.2-2.6-3.8l2.2-0.9c0.3,1.1,0.9,2.1,1.7,2.8c0.8,0.7,1.8,1.1,2.9,1.1c1.1,0,2-0.3,2.8-0.9
		c0.8-0.6,1.1-1.4,1.1-2.4c0-0.9-0.3-1.6-1-2.2c-0.6-0.6-1.7-1.1-3.2-1.6l-1.2-0.4c-1.3-0.5-2.4-1.1-3.3-1.9
		c-0.9-0.8-1.3-1.9-1.3-3.2c0-0.9,0.2-1.7,0.7-2.5c0.5-0.8,1.2-1.4,2.1-1.9c0.9-0.5,1.9-0.7,3-0.7s2.1,0.2,2.9,0.6
		c0.8,0.4,1.5,0.9,2,1.5c0.5,0.6,0.8,1.2,1,1.7l-2.1,0.9c-0.2-0.7-0.6-1.3-1.2-1.8c-0.6-0.5-1.5-0.8-2.5-0.8c-1,0-1.8,0.3-2.5,0.8
		c-0.7,0.6-1,1.2-1,2.1c0,0.7,0.3,1.4,0.9,1.8c0.6,0.5,1.5,0.9,2.7,1.3l1.3,0.4c1.6,0.6,2.9,1.3,3.8,2.2c0.9,0.9,1.4,2.1,1.4,3.6
		c0,1.2-0.3,2.3-0.9,3.1c-0.6,0.8-1.4,1.4-2.4,1.8c-1,0.4-1.9,0.6-3,0.6C148.8,28.7,147.4,28.2,146.2,27.3z"/>
	<path d="M160.2,27.2c-0.9-1-1.3-2.3-1.3-4v-8.5h2.3v8.2c0,1.3,0.3,2.2,0.9,2.8c0.6,0.6,1.4,0.9,2.4,0.9c0.8,0,1.4-0.2,2-0.6
		c0.6-0.4,1.1-0.9,1.4-1.6c0.3-0.7,0.5-1.3,0.5-2.1v-7.7h2.3v13.6h-2.2v-2h-0.1c-0.4,0.7-1,1.2-1.8,1.7c-0.8,0.5-1.7,0.7-2.6,0.7
		C162.3,28.7,161.1,28.2,160.2,27.2z"/>
	<path d="M174,14.7h2.2v2h0.1c0.4-0.7,1-1.3,1.8-1.7c0.8-0.5,1.6-0.7,2.5-0.7c1,0,1.9,0.2,2.6,0.7c0.7,0.5,1.3,1.1,1.6,1.9
		c0.5-0.8,1.1-1.4,1.9-1.9c0.8-0.5,1.7-0.7,2.8-0.7c1.6,0,2.7,0.5,3.5,1.4c0.8,0.9,1.2,2.2,1.2,3.9v8.7h-2.2v-8.4
		c0-1.3-0.3-2.2-0.8-2.7c-0.5-0.6-1.3-0.9-2.3-0.9c-0.7,0-1.3,0.2-1.8,0.6c-0.6,0.4-1,0.9-1.3,1.6c-0.3,0.7-0.5,1.4-0.5,2.1v7.7
		h-2.3v-8.3c0-1.3-0.3-2.2-0.8-2.8c-0.5-0.6-1.3-0.9-2.3-0.9c-0.7,0-1.3,0.2-1.8,0.6c-0.5,0.4-1,0.9-1.3,1.6
		c-0.3,0.7-0.5,1.4-0.5,2.1v7.6H174V14.7z"/>
	<path d="M197.3,14.7h2.2v2h0.1c0.4-0.7,1-1.3,1.8-1.7c0.8-0.5,1.6-0.7,2.5-0.7c1,0,1.9,0.2,2.6,0.7c0.7,0.5,1.3,1.1,1.6,1.9
		c0.5-0.8,1.1-1.4,1.9-1.9c0.8-0.5,1.7-0.7,2.8-0.7c1.6,0,2.7,0.5,3.5,1.4c0.8,0.9,1.2,2.2,1.2,3.9v8.7h-2.2v-8.4
		c0-1.3-0.3-2.2-0.8-2.7c-0.5-0.6-1.3-0.9-2.3-0.9c-0.7,0-1.3,0.2-1.8,0.6c-0.6,0.4-1,0.9-1.3,1.6c-0.3,0.7-0.5,1.4-0.5,2.1v7.7
		h-2.3v-8.3c0-1.3-0.3-2.2-0.8-2.8c-0.5-0.6-1.3-0.9-2.3-0.9c-0.7,0-1.3,0.2-1.8,0.6c-0.5,0.4-1,0.9-1.3,1.6
		c-0.3,0.7-0.5,1.4-0.5,2.1v7.6h-2.3V14.7z"/>
	<path d="M220.7,11.7c-0.3-0.3-0.5-0.7-0.5-1.1c0-0.4,0.2-0.8,0.5-1.1c0.3-0.3,0.7-0.5,1.1-0.5c0.4,0,0.8,0.2,1.1,0.5
		c0.3,0.3,0.5,0.7,0.5,1.1c0,0.4-0.2,0.8-0.5,1.1c-0.3,0.3-0.7,0.5-1.2,0.5C221.4,12.2,221.1,12,220.7,11.7z M220.8,14.7h2.2v13.6
		h-2.2V14.7z"/>
	<path d="M230.1,28.4c-0.5-0.2-0.9-0.4-1.2-0.7c-0.4-0.3-0.6-0.7-0.8-1.2c-0.2-0.5-0.3-1-0.3-1.7v-8.1h-2.4v-2.1h2.4v-3.8h2.3v3.8
		h3.3v2.1h-3.3v7.6c0,0.8,0.1,1.3,0.4,1.7c0.3,0.4,0.8,0.6,1.5,0.6c0.5,0,1-0.2,1.5-0.5v2.2c-0.3,0.1-0.5,0.2-0.8,0.3
		c-0.3,0.1-0.6,0.1-1.1,0.1C231.1,28.7,230.6,28.6,230.1,28.4z"/>
	<path d="M242.8,9.2h11v2.2H245v6.3h7.9v2.1H245v6.3h8.8v2.2h-11V9.2z"/>
	<path d="M260.2,21.3l-4.7-6.7h2.6l3.5,5l3.4-5h2.6l-4.7,6.7l4.8,6.9h-2.6l-3.5-5.2l-3.5,5.2h-2.6L260.2,21.3z"/>
	<path d="M273.4,28.4c-0.5-0.2-0.9-0.4-1.2-0.7c-0.4-0.3-0.6-0.7-0.8-1.2c-0.2-0.5-0.3-1-0.3-1.7v-8.1h-2.4v-2.1h2.4v-3.8h2.3v3.8
		h3.3v2.1h-3.3v7.6c0,0.8,0.1,1.3,0.4,1.7c0.3,0.4,0.8,0.6,1.5,0.6c0.5,0,1-0.2,1.5-0.5v2.2c-0.3,0.1-0.5,0.2-0.8,0.3
		c-0.3,0.1-0.6,0.1-1.1,0.1C274.4,28.7,273.9,28.6,273.4,28.4z"/>
	<path d="M281.4,27.7c-1-0.6-1.8-1.5-2.4-2.6c-0.6-1.1-0.9-2.3-0.9-3.7c0-1.3,0.3-2.5,0.8-3.6c0.5-1.1,1.3-2,2.3-2.6
		c1-0.7,2.1-1,3.5-1c1.3,0,2.5,0.3,3.5,0.9c1,0.6,1.7,1.4,2.3,2.5c0.5,1,0.8,2.2,0.8,3.6c0,0.3,0,0.5-0.1,0.7h-10.7
		c0.1,1,0.3,1.9,0.7,2.6c0.4,0.7,1,1.2,1.7,1.6c0.7,0.4,1.4,0.5,2.1,0.5c1.7,0,3.1-0.8,4-2.5l1.9,0.9c-0.6,1.1-1.4,2-2.4,2.6
		s-2.2,1-3.6,1C283.6,28.7,282.5,28.4,281.4,27.7z M288.9,20c0-0.6-0.2-1.1-0.5-1.7c-0.3-0.6-0.7-1-1.3-1.4
		c-0.6-0.4-1.4-0.6-2.3-0.6c-1.1,0-2,0.3-2.7,1c-0.7,0.7-1.2,1.6-1.5,2.7H288.9z"/>
	<path d="M293.9,14.7h2.2v2h0.1c0.4-0.7,1-1.2,1.8-1.7c0.8-0.5,1.7-0.7,2.6-0.7c1.6,0,2.9,0.5,3.7,1.4c0.9,0.9,1.3,2.2,1.3,3.9v8.7
		h-2.3v-8.4c0-1.3-0.3-2.2-0.9-2.7c-0.6-0.6-1.4-0.9-2.5-0.9c-0.7,0-1.4,0.2-2,0.6c-0.6,0.4-1,0.9-1.3,1.6c-0.3,0.7-0.5,1.4-0.5,2.1
		v7.6h-2.3V14.7z"/>
	<path d="M311.3,27.7c-1-0.6-1.8-1.5-2.3-2.6s-0.9-2.3-0.9-3.7c0-1.4,0.3-2.6,0.9-3.7s1.3-2,2.3-2.6c1-0.6,2.1-0.9,3.3-0.9
		c1,0,2,0.2,2.8,0.7c0.8,0.5,1.4,1.1,1.9,1.7h0.1l-0.1-1.9V9.2h2.3v19.1h-2.2v-2h-0.1c-0.4,0.7-1,1.2-1.9,1.7
		c-0.8,0.5-1.7,0.7-2.8,0.7C313.4,28.7,312.3,28.4,311.3,27.7z M317.1,26c0.7-0.4,1.2-1,1.7-1.8c0.4-0.8,0.6-1.7,0.6-2.7
		c0-1-0.2-1.9-0.6-2.7c-0.4-0.8-1-1.4-1.7-1.8c-0.7-0.4-1.4-0.6-2.2-0.6c-0.8,0-1.5,0.2-2.2,0.6c-0.7,0.4-1.2,1-1.7,1.8
		c-0.4,0.8-0.6,1.7-0.6,2.7s0.2,1.9,0.6,2.7c0.4,0.8,1,1.4,1.7,1.8c0.7,0.4,1.4,0.6,2.2,0.6C315.6,26.6,316.4,26.4,317.1,26z"/>
	<path d="M327.3,27.7c-1-0.6-1.8-1.5-2.4-2.6c-0.6-1.1-0.9-2.3-0.9-3.7c0-1.3,0.3-2.5,0.8-3.6c0.5-1.1,1.3-2,2.3-2.6
		c1-0.7,2.1-1,3.5-1c1.3,0,2.5,0.3,3.5,0.9c1,0.6,1.7,1.4,2.3,2.5c0.5,1,0.8,2.2,0.8,3.6c0,0.3,0,0.5-0.1,0.7h-10.7
		c0.1,1,0.3,1.9,0.7,2.6c0.4,0.7,1,1.2,1.7,1.6c0.7,0.4,1.4,0.5,2.1,0.5c1.7,0,3.1-0.8,4-2.5l1.9,0.9c-0.6,1.1-1.4,2-2.4,2.6
		c-1,0.6-2.2,1-3.6,1C329.5,28.7,328.3,28.4,327.3,27.7z M334.7,20c0-0.6-0.2-1.1-0.5-1.7c-0.3-0.6-0.7-1-1.3-1.4
		c-0.6-0.4-1.4-0.6-2.3-0.6c-1.1,0-2,0.3-2.7,1c-0.7,0.7-1.2,1.6-1.5,2.7H334.7z"/>
	<path d="M342.3,27.7c-1-0.6-1.8-1.5-2.3-2.6s-0.9-2.3-0.9-3.7c0-1.4,0.3-2.6,0.9-3.7s1.3-2,2.3-2.6c1-0.6,2.1-0.9,3.3-0.9
		c1,0,2,0.2,2.8,0.7c0.8,0.5,1.4,1.1,1.9,1.7h0.1l-0.1-1.9V9.2h2.3v19.1h-2.2v-2h-0.1c-0.4,0.7-1,1.2-1.9,1.7
		c-0.8,0.5-1.7,0.7-2.8,0.7C344.4,28.7,343.3,28.4,342.3,27.7z M348.1,26c0.7-0.4,1.2-1,1.7-1.8c0.4-0.8,0.6-1.7,0.6-2.7
		c0-1-0.2-1.9-0.6-2.7c-0.4-0.8-1-1.4-1.7-1.8c-0.7-0.4-1.4-0.6-2.2-0.6c-0.8,0-1.5,0.2-2.2,0.6c-0.7,0.4-1.2,1-1.7,1.8
		c-0.4,0.8-0.6,1.7-0.6,2.7s0.2,1.9,0.6,2.7c0.4,0.8,1,1.4,1.7,1.8c0.7,0.4,1.4,0.6,2.2,0.6C346.7,26.6,347.4,26.4,348.1,26z"/>
</g>
</svg>
