<?xml version="1.0" encoding="utf-8"?>
<!-- Generator: Adobe Illustrator 23.0.0, SVG Export Plug-In . SVG Version: 6.00 Build 0)  -->
<svg version="1.1" id="Layer_1" xmlns="http://www.w3.org/2000/svg" xmlns:xlink="http://www.w3.org/1999/xlink" x="0px" y="0px"
	 viewBox="0 0 260 55" style="enable-background:new 0 0 260 55;" xml:space="preserve">
<style type="text/css">
	.st0{fill:#F89E1E;}
	.st1{opacity:0.12;clip-path:url(#SVGID_2_);}
	.st2{clip-path:url(#SVGID_4_);}
	.st3{filter:url(#Adobe_OpacityMaskFilter);}
	.st4{mask:url(#mask1419_2_);}
	.st5{fill:#F27D21;}
	.st6{opacity:0.2;clip-path:url(#SVGID_8_);}
	.st7{filter:url(#Adobe_OpacityMaskFilter_2_);}
	.st8{mask:url(#mask1443_2_);}
	.st9{fill:#FFCB2D;}
	.st10{opacity:0.2;clip-path:url(#SVGID_12_);}
	.st11{fill:#FFFFFF;}
	.st12{opacity:0.2;clip-path:url(#SVGID_14_);}
	.st13{fill:#A52A23;}
	.st14{enable-background:new    ;}
</style>
<g>
	<g id="g1469" transform="matrix(0.38865341,0,0,0.38865341,311.8307,16.741981)">
		<path id="path1467" class="st0" d="M-782,59.1l14.8-94c0.4-2.6,3.9-3.2,5.1-0.9l15.2,28.3l6.1-11.5c0.5-0.9,1.4-1.5,2.4-1.5
			c1,0,1.9,0.6,2.4,1.5l41.1,78H-782z"/>
	</g>
	<g id="g1491" transform="matrix(0.38865341,0,0,0.38865341,-11.603912,-648.1023)">
		<g id="g1471">
		</g>
		<g id="g1489">
			<g>
				<defs>
					<rect id="SVGID_1_" x="63" y="1720.2" width="22.7" height="29.3"/>
				</defs>
				<clipPath id="SVGID_2_">
					<use xlink:href="#SVGID_1_"  style="overflow:visible;"/>
				</clipPath>
				<g id="g1487" class="st1">
					<g id="g1485">
						<g>
							<defs>
								<rect id="SVGID_3_" x="63" y="1720.2" width="22.7" height="29.3"/>
							</defs>
							<clipPath id="SVGID_4_">
								<use xlink:href="#SVGID_3_"  style="overflow:visible;"/>
							</clipPath>
							<g id="g1483" class="st2">
								<g id="g1481">
									<g id="g1473">
									</g>
									<defs>
										<filter id="Adobe_OpacityMaskFilter" filterUnits="userSpaceOnUse" x="45.1" y="1697.2" width="58.5" height="75.3">
											<feColorMatrix  type="matrix" values="1 0 0 0 0  0 1 0 0 0  0 0 1 0 0  0 0 0 1 0"/>
										</filter>
									</defs>
									<mask maskUnits="userSpaceOnUse" x="45.1" y="1697.2" width="58.5" height="75.3" id="mask1419_2_">
										<g id="g1429_2_" class="st3">
											<g>
												<defs>
													<rect id="SVGID_5_" x="1035.2" y="5630.9" width="43.8" height="56.4"/>
												</defs>
												<clipPath id="SVGID_6_">
													<use xlink:href="#SVGID_5_"  style="overflow:visible;"/>
												</clipPath>
												<g id="g1427_2_">
													<g id="g1425_2_">
														<g id="g1423_2_" transform="matrix(48.92451,0,0,62.983277,827.94617,1708.3658)">
															<g transform="matrix(1 0 0 1 0 3.814697e-06)" style="clip-path:url(#SVGID_6_);enable-background:new    ;">
																
																	<image style="overflow:visible;" width="87" height="112" id="image1421_2_" xlink:href="B44B74183CB34051.png"  transform="matrix(2.650623e-02 0 0 -2.058966e-02 3.531 63.88)">
																</image>
															</g>
														</g>
													</g>
												</g>
											</g>
										</g>
									</mask>
									<g id="g1479" class="st4">
										<g id="g1477" transform="matrix(48.92451,0,0,62.983277,827.94617,1708.3658)">
											<defs>
												<filter id="Adobe_OpacityMaskFilter_1_" filterUnits="userSpaceOnUse" x="-16" y="-0.2" width="1.2" height="1.2">
													<feColorMatrix  type="matrix" values="1 0 0 0 0  0 1 0 0 0  0 0 1 0 0  0 0 0 1 0"/>
												</filter>
											</defs>
											<mask maskUnits="userSpaceOnUse" x="-16" y="-0.2" width="1.2" height="1.2" id="mask1431_2_">
												
													<image style="overflow:visible;filter:url(#Adobe_OpacityMaskFilter_1_);enable-background:new    ;" width="87" height="112" id="image1433_2_" xlink:href="B44B74183CB34053.jpg"  transform="matrix(5.417782e-04 0 0 3.269069e-04 -35.494 -0.9754)">
												</image>
											</mask>
											<g style="mask:url(#mask1431_2_);enable-background:new    ;">
												
													<image style="overflow:visible;" width="87" height="112" id="image1475_2_" xlink:href="B44B74183CB34056.png"  transform="matrix(1.373565e-02 0 0 1.066966e-02 -16.0003 -0.177)">
												</image>
											</g>
										</g>
									</g>
								</g>
							</g>
						</g>
					</g>
				</g>
			</g>
		</g>
	</g>
	<g id="g1495" transform="matrix(0.38865341,0,0,0.38865341,328.38547,28.650555)">
		<path id="path1493" class="st5" d="M-773.7-8.1L-789.5-38l-35,66.5L-773.7-8.1z"/>
	</g>
	<g id="g1513" transform="matrix(0.38865341,0,0,0.38865341,-11.603912,-648.1023)">
		<g id="g1497">
		</g>
		<g id="g1511">
			<g>
				<defs>
					<rect id="SVGID_7_" x="76.8" y="1723.7" width="36.7" height="40.6"/>
				</defs>
				<clipPath id="SVGID_8_">
					<use xlink:href="#SVGID_7_"  style="overflow:visible;"/>
				</clipPath>
				<g id="g1509" class="st6">
					<g id="g1507">
						<g id="g1499">
						</g>
						<defs>
							<filter id="Adobe_OpacityMaskFilter_2_" filterUnits="userSpaceOnUse" x="48" y="1691.8" width="94.3" height="104.4">
								<feColorMatrix  type="matrix" values="1 0 0 0 0  0 1 0 0 0  0 0 1 0 0  0 0 0 1 0"/>
							</filter>
						</defs>
						<mask maskUnits="userSpaceOnUse" x="48" y="1691.8" width="94.3" height="104.4" id="mask1443_2_">
							<g id="g1453_2_" class="st7">
								<g>
									<defs>
										<rect id="SVGID_9_" x="1061.8" y="5602.3" width="70.7" height="78.3"/>
									</defs>
									<clipPath id="SVGID_10_">
										<use xlink:href="#SVGID_9_"  style="overflow:visible;"/>
									</clipPath>
									<g id="g1451_2_">
										<g id="g1449_2_">
											<g id="g1447_2_" transform="matrix(78.925864,0,0,87.382206,830.31366,1688.5062)">
												<g style="clip-path:url(#SVGID_10_);enable-background:new    ;">
													
														<image style="overflow:visible;" width="140" height="155" id="image1445_2_" xlink:href="B44B74183CB34057.png"  transform="matrix(1.647173e-02 0 0 -1.487769e-02 2.228 46.3904)">
													</image>
												</g>
											</g>
										</g>
									</g>
								</g>
							</g>
						</mask>
						<g id="g1505" class="st8">
							<g id="g1503" transform="matrix(78.925864,0,0,87.382206,830.31366,1688.5062)">
								<defs>
									<filter id="Adobe_OpacityMaskFilter_3_" filterUnits="userSpaceOnUse" x="-9.9" y="0" width="1.2" height="1.2">
										<feColorMatrix  type="matrix" values="1 0 0 0 0  0 1 0 0 0  0 0 1 0 0  0 0 0 1 0"/>
									</filter>
								</defs>
								<mask maskUnits="userSpaceOnUse" x="-9.9" y="0" width="1.2" height="1.2" id="mask1455_2_">
									
										<image style="overflow:visible;filter:url(#Adobe_OpacityMaskFilter_3_);enable-background:new    ;" width="140" height="155" id="image1457_2_" xlink:href="B44B74183CB34051.jpg"  transform="matrix(2.086988e-04 0 0 1.702600e-04 -22.032 -0.4758)">
									</image>
								</mask>
								
									<g transform="matrix(8.535725e-03 0 0 7.709687e-03 -9.9124 3.760653e-02)" style="mask:url(#mask1455_2_);enable-background:new    ;">
									
										<image style="overflow:visible;" width="140" height="155" id="image1501_2_" xlink:href="B44B74183CB34053.png"  transform="matrix(8.535725e-03 0 0 7.709687e-03 -9.9124 3.760653e-02)">
									</image>
								</g>
							</g>
						</g>
					</g>
				</g>
			</g>
		</g>
	</g>
	<g id="g1517" transform="matrix(0.38865341,0,0,0.38865341,340.15929,16.741981)">
		<path id="path1515" class="st9" d="M-767.8,59.1l-11.3-69.6c-0.2-1-0.9-1.8-1.9-2.1c-1-0.3-2-0.1-2.8,0.7l-71.2,71.1l39.4,22
			c2.5,1.4,5.5,1.4,8,0L-767.8,59.1z"/>
	</g>
	<g id="g1529" transform="matrix(0.38865341,0,0,0.38865341,-11.603912,-648.1023)">
		<g id="g1519">
		</g>
		<g id="g1527">
			<g>
				<defs>
					<rect id="SVGID_11_" x="76.8" y="1703" width="33.9" height="37.5"/>
				</defs>
				<clipPath id="SVGID_12_">
					<use xlink:href="#SVGID_11_"  style="overflow:visible;"/>
				</clipPath>
				<g id="g1525" class="st10">
					<g id="g1523" transform="translate(832.3071,1710.7491)">
						<path id="path1521" class="st11" d="M-782,58.9l14.6-93.2c0.4-2.6,3.9-3.2,5.1-0.9L-747-6.8l6.1-11.5c0.5-0.9,1.4-1.5,2.4-1.5
							c1,0,1.9,0.6,2.4,1.5l10.9,20.6L-782,58.9z M-706.3-10.6c-0.2-1-0.9-1.8-1.9-2.1c-1-0.3-2-0.1-2.8,0.7L-725,2.1L-736.2-19
							c-0.4-0.9-1.4-1.5-2.4-1.5c-1,0-1.9,0.6-2.4,1.5L-747-7.5l-15.3-28.3c-1.2-2.3-4.7-1.7-5.1,0.9l-14.7,94h-0.1l0.1,0.1l0.4,0.2
							l56.6-56.6l14.2-14.1c0.7-0.7,1.8-1,2.8-0.7c1,0.3,1.7,1.1,1.9,2.1l11.2,69l0.1-0.1L-706.3-10.6z"/>
					</g>
				</g>
			</g>
		</g>
	</g>
	<g id="g1541" transform="matrix(0.38865341,0,0,0.38865341,-11.603912,-648.1023)">
		<g id="g1531">
		</g>
		<g id="g1539">
			<g>
				<defs>
					<rect id="SVGID_13_" x="76.8" y="1776.4" width="33.9" height="9.2"/>
				</defs>
				<clipPath id="SVGID_14_">
					<use xlink:href="#SVGID_13_"  style="overflow:visible;"/>
				</clipPath>
				<g id="g1537" class="st12">
					<g id="g1535" transform="translate(871.8262,1692.7618)">
						<path id="path1533" class="st13" d="M-774.3,98.4c-2.5,1.4-5.5,1.4-8,0l-39.3-22l-0.1,0.6l39.4,22c2.5,1.4,5.5,1.4,8,0
							l39.7-22l-0.1-0.6L-774.3,98.4z"/>
					</g>
				</g>
			</g>
		</g>
	</g>
</g>
<g class="st14">
	<path d="M55.7,5.2h11v2.2H58v6.5h7.9V16H58v8.3h-2.2V5.2z"/>
	<path d="M69.3,7.7C69,7.4,68.9,7,68.9,6.6c0-0.4,0.2-0.8,0.5-1.1C69.7,5.1,70,5,70.5,5c0.4,0,0.8,0.2,1.1,0.5
		c0.3,0.3,0.5,0.7,0.5,1.1c0,0.4-0.2,0.8-0.5,1.1s-0.7,0.5-1.2,0.5C70,8.2,69.7,8,69.3,7.7z M69.4,10.7h2.2v13.6h-2.2V10.7z"/>
	<path d="M75.2,10.7h2.2v2.2h0.1c0.3-0.7,0.8-1.4,1.5-1.9c0.8-0.5,1.6-0.7,2.4-0.7c0.6,0,1.2,0.1,1.6,0.3V13
		c-0.6-0.3-1.2-0.4-1.9-0.4c-0.7,0-1.3,0.2-1.8,0.6c-0.5,0.4-1,0.9-1.3,1.5c-0.3,0.6-0.5,1.3-0.5,2v7.6h-2.3V10.7z"/>
	<path d="M86.9,23.7c-1-0.6-1.8-1.5-2.4-2.6c-0.6-1.1-0.9-2.3-0.9-3.7c0-1.3,0.3-2.5,0.8-3.6c0.5-1.1,1.3-2,2.3-2.6
		c1-0.7,2.1-1,3.5-1c1.3,0,2.5,0.3,3.5,0.9c1,0.6,1.7,1.4,2.3,2.5c0.5,1,0.8,2.2,0.8,3.6c0,0.3,0,0.5-0.1,0.7H85.9
		c0.1,1,0.3,1.9,0.7,2.6c0.4,0.7,1,1.2,1.7,1.6c0.7,0.4,1.4,0.5,2.1,0.5c1.7,0,3.1-0.8,4-2.5l1.9,0.9c-0.6,1.1-1.4,2-2.4,2.6
		s-2.2,1-3.6,1C89.1,24.7,87.9,24.4,86.9,23.7z M94.3,16c0-0.6-0.2-1.1-0.5-1.7c-0.3-0.6-0.7-1-1.3-1.4c-0.6-0.4-1.4-0.6-2.3-0.6
		c-1.1,0-2,0.3-2.7,1C86.7,14,86.3,14.9,86,16H94.3z"/>
	<path d="M103.5,24c-0.8-0.5-1.4-1-1.9-1.7h-0.1v2h-2.2V5.2h2.3v5.6l-0.1,1.9h0.1c0.4-0.7,1-1.3,1.9-1.7c0.8-0.5,1.8-0.7,2.8-0.7
		c1.2,0,2.3,0.3,3.3,0.9c1,0.6,1.8,1.5,2.3,2.6c0.6,1.1,0.9,2.3,0.9,3.7c0,1.4-0.3,2.6-0.9,3.7c-0.6,1.1-1.3,1.9-2.3,2.6
		s-2.1,0.9-3.3,0.9C105.2,24.7,104.3,24.4,103.5,24z M108.2,22c0.7-0.4,1.2-1,1.7-1.8c0.4-0.8,0.6-1.7,0.6-2.7s-0.2-1.9-0.6-2.7
		c-0.4-0.8-1-1.4-1.7-1.8c-0.7-0.4-1.4-0.6-2.2-0.6c-0.8,0-1.5,0.2-2.2,0.6c-0.7,0.4-1.2,1-1.7,1.8c-0.4,0.8-0.6,1.7-0.6,2.7
		c0,1,0.2,1.9,0.6,2.7c0.4,0.8,1,1.4,1.7,1.8c0.7,0.4,1.4,0.6,2.2,0.6C106.8,22.6,107.5,22.4,108.2,22z"/>
	<path d="M117.1,24.1c-0.8-0.4-1.4-0.9-1.8-1.6c-0.4-0.7-0.6-1.5-0.6-2.3c0-1.4,0.5-2.6,1.6-3.4c1.1-0.8,2.5-1.2,4.1-1.2
		c0.8,0,1.6,0.1,2.3,0.3c0.7,0.2,1.2,0.4,1.6,0.6v-0.8c0-1-0.4-1.8-1.1-2.4c-0.7-0.6-1.6-0.9-2.7-0.9c-0.8,0-1.5,0.2-2.1,0.5
		c-0.6,0.3-1.1,0.8-1.5,1.4l-1.7-1.3c0.5-0.8,1.3-1.5,2.2-1.9c0.9-0.5,2-0.7,3.1-0.7c1.8,0,3.3,0.5,4.4,1.5c1.1,1,1.6,2.3,1.6,4v8.6
		h-2.2v-1.9h-0.1c-0.4,0.7-1,1.2-1.8,1.7c-0.8,0.5-1.7,0.7-2.6,0.7C118.7,24.7,117.8,24.5,117.1,24.1z M122.1,22.1
		c0.7-0.4,1.2-0.9,1.6-1.6c0.4-0.7,0.6-1.4,0.6-2.2c-0.4-0.3-0.9-0.5-1.6-0.7c-0.6-0.2-1.3-0.3-2-0.3c-1.2,0-2.2,0.3-2.8,0.8
		c-0.6,0.5-0.9,1.2-0.9,2c0,0.7,0.3,1.3,0.9,1.8c0.6,0.5,1.3,0.7,2.2,0.7C120.7,22.7,121.4,22.5,122.1,22.1z"/>
	<path d="M130.5,23.6c-1-0.7-1.7-1.6-2.1-2.6l2-0.9c0.3,0.8,0.8,1.4,1.5,1.9c0.7,0.4,1.4,0.7,2.2,0.7c0.9,0,1.6-0.2,2.2-0.5
		c0.6-0.3,0.9-0.8,0.9-1.5c0-0.6-0.2-1-0.7-1.4c-0.5-0.3-1.2-0.6-2.3-0.9l-1.7-0.4c-1.1-0.3-2-0.7-2.7-1.4c-0.7-0.6-1-1.5-1-2.5
		c0-0.8,0.2-1.5,0.7-2.1c0.5-0.6,1.1-1.1,1.9-1.4c0.8-0.3,1.6-0.5,2.5-0.5c1.2,0,2.2,0.3,3.2,0.8c0.9,0.5,1.6,1.2,2,2.2l-2,0.9
		c-0.6-1.2-1.7-1.8-3.2-1.8c-0.7,0-1.4,0.2-2,0.5s-0.8,0.8-0.8,1.3c0,0.5,0.2,0.9,0.6,1.2c0.4,0.3,1,0.6,1.8,0.8l2,0.5
		c1.3,0.3,2.3,0.8,3,1.5c0.7,0.7,1,1.5,1,2.4c0,0.8-0.2,1.6-0.7,2.2c-0.5,0.6-1.1,1.1-1.9,1.5s-1.7,0.5-2.7,0.5
		C132.7,24.7,131.4,24.3,130.5,23.6z"/>
	<path d="M144.7,23.7c-1-0.6-1.8-1.5-2.4-2.6c-0.6-1.1-0.9-2.3-0.9-3.7c0-1.3,0.3-2.5,0.8-3.6c0.5-1.1,1.3-2,2.3-2.6
		c1-0.7,2.1-1,3.5-1c1.3,0,2.5,0.3,3.5,0.9c1,0.6,1.7,1.4,2.3,2.5c0.5,1,0.8,2.2,0.8,3.6c0,0.3,0,0.5-0.1,0.7h-10.7
		c0.1,1,0.3,1.9,0.7,2.6c0.4,0.7,1,1.2,1.7,1.6c0.7,0.4,1.4,0.5,2.1,0.5c1.7,0,3.1-0.8,4-2.5l1.9,0.9c-0.6,1.1-1.4,2-2.4,2.6
		c-1,0.6-2.2,1-3.6,1C146.9,24.7,145.7,24.4,144.7,23.7z M152.1,16c0-0.6-0.2-1.1-0.5-1.7c-0.3-0.6-0.7-1-1.3-1.4
		c-0.6-0.4-1.4-0.6-2.3-0.6c-1.1,0-2,0.3-2.7,1c-0.7,0.7-1.2,1.6-1.5,2.7H152.1z"/>
	<path d="M164.2,23.3c-1.2-0.9-2.1-2.2-2.6-3.8l2.2-0.9c0.3,1.1,0.9,2.1,1.7,2.8c0.8,0.7,1.8,1.1,2.9,1.1c1.1,0,2-0.3,2.8-0.9
		c0.8-0.6,1.1-1.4,1.1-2.4c0-0.9-0.3-1.6-1-2.2c-0.6-0.6-1.7-1.1-3.2-1.6l-1.2-0.4c-1.3-0.5-2.4-1.1-3.3-1.9
		c-0.9-0.8-1.3-1.9-1.3-3.2c0-0.9,0.2-1.7,0.7-2.5c0.5-0.8,1.2-1.4,2.1-1.9c0.9-0.5,1.9-0.7,3-0.7s2.1,0.2,2.9,0.6
		c0.8,0.4,1.5,0.9,2,1.5c0.5,0.6,0.8,1.2,1,1.7l-2.1,0.9c-0.2-0.7-0.6-1.3-1.2-1.8c-0.6-0.5-1.5-0.8-2.5-0.8c-1,0-1.8,0.3-2.5,0.8
		c-0.7,0.6-1,1.2-1,2.1c0,0.7,0.3,1.4,0.9,1.8c0.6,0.5,1.5,0.9,2.7,1.3l1.3,0.4c1.6,0.6,2.9,1.3,3.8,2.2c0.9,0.9,1.4,2.1,1.4,3.6
		c0,1.2-0.3,2.3-0.9,3.1c-0.6,0.8-1.4,1.4-2.4,1.8c-1,0.4-1.9,0.6-3,0.6C166.8,24.7,165.4,24.2,164.2,23.3z"/>
	<path d="M178.2,23.2c-0.9-1-1.3-2.3-1.3-4v-8.5h2.3v8.2c0,1.3,0.3,2.2,0.9,2.8c0.6,0.6,1.4,0.9,2.4,0.9c0.8,0,1.4-0.2,2-0.6
		c0.6-0.4,1.1-0.9,1.4-1.6c0.3-0.7,0.5-1.3,0.5-2.1v-7.7h2.3v13.6h-2.2v-2h-0.1c-0.4,0.7-1,1.2-1.8,1.7c-0.8,0.5-1.7,0.7-2.6,0.7
		C180.3,24.7,179.1,24.2,178.2,23.2z"/>
	<path d="M192,10.7h2.2v2h0.1c0.4-0.7,1-1.3,1.8-1.7c0.8-0.5,1.6-0.7,2.5-0.7c1,0,1.9,0.2,2.6,0.7c0.7,0.5,1.3,1.1,1.6,1.9
		c0.5-0.8,1.1-1.4,1.9-1.9c0.8-0.5,1.7-0.7,2.8-0.7c1.6,0,2.7,0.5,3.5,1.4c0.8,0.9,1.2,2.2,1.2,3.9v8.7h-2.2v-8.4
		c0-1.3-0.3-2.2-0.8-2.7c-0.5-0.6-1.3-0.9-2.3-0.9c-0.7,0-1.3,0.2-1.8,0.6c-0.6,0.4-1,0.9-1.3,1.6c-0.3,0.7-0.5,1.4-0.5,2.1v7.7
		h-2.3v-8.3c0-1.3-0.3-2.2-0.8-2.8c-0.5-0.6-1.3-0.9-2.3-0.9c-0.7,0-1.3,0.2-1.8,0.6c-0.5,0.4-1,0.9-1.3,1.6
		c-0.3,0.7-0.5,1.4-0.5,2.1v7.6H192V10.7z"/>
	<path d="M215.3,10.7h2.2v2h0.1c0.4-0.7,1-1.3,1.8-1.7c0.8-0.5,1.6-0.7,2.5-0.7c1,0,1.9,0.2,2.6,0.7c0.7,0.5,1.3,1.1,1.6,1.9
		c0.5-0.8,1.1-1.4,1.9-1.9c0.8-0.5,1.7-0.7,2.8-0.7c1.6,0,2.7,0.5,3.5,1.4c0.8,0.9,1.2,2.2,1.2,3.9v8.7h-2.2v-8.4
		c0-1.3-0.3-2.2-0.8-2.7c-0.5-0.6-1.3-0.9-2.3-0.9c-0.7,0-1.3,0.2-1.8,0.6c-0.6,0.4-1,0.9-1.3,1.6c-0.3,0.7-0.5,1.4-0.5,2.1v7.7
		h-2.3v-8.3c0-1.3-0.3-2.2-0.8-2.8c-0.5-0.6-1.3-0.9-2.3-0.9c-0.7,0-1.3,0.2-1.8,0.6c-0.5,0.4-1,0.9-1.3,1.6
		c-0.3,0.7-0.5,1.4-0.5,2.1v7.6h-2.3V10.7z"/>
	<path d="M238.7,7.7c-0.3-0.3-0.5-0.7-0.5-1.1c0-0.4,0.2-0.8,0.5-1.1c0.3-0.3,0.7-0.5,1.1-0.5c0.4,0,0.8,0.2,1.1,0.5
		c0.3,0.3,0.5,0.7,0.5,1.1c0,0.4-0.2,0.8-0.5,1.1s-0.7,0.5-1.2,0.5C239.4,8.2,239.1,8,238.7,7.7z M238.8,10.7h2.2v13.6h-2.2V10.7z"
		/>
	<path d="M248.1,24.4c-0.5-0.2-0.9-0.4-1.2-0.7c-0.4-0.3-0.6-0.7-0.8-1.2c-0.2-0.5-0.3-1-0.3-1.7v-8.1h-2.4v-2.1h2.4V6.8h2.3v3.8
		h3.3v2.1h-3.3v7.6c0,0.8,0.1,1.3,0.4,1.7c0.3,0.4,0.8,0.6,1.5,0.6c0.5,0,1-0.2,1.5-0.5v2.2c-0.3,0.1-0.5,0.2-0.8,0.3
		c-0.3,0.1-0.6,0.1-1.1,0.1C249.1,24.7,248.6,24.6,248.1,24.4z"/>
	<path d="M55.8,31.2h12v2.3h-9.5v6.9h8.6v2.3h-8.6v6.9h9.5v2.3h-12V31.2z"/>
	<path d="M74.7,44.4l-5.1-7.3h2.8l3.8,5.5l3.7-5.5h2.9l-5.1,7.3l5.3,7.5H80l-3.8-5.7l-3.8,5.7h-2.9L74.7,44.4z"/>
	<path d="M89.1,52.1c-0.5-0.2-0.9-0.5-1.3-0.8c-0.4-0.4-0.7-0.8-0.9-1.3c-0.2-0.5-0.3-1.1-0.3-1.8v-8.8H84v-2.2h2.6V33h2.5v4.2h3.6
		v2.2h-3.6v8.2c0,0.8,0.2,1.4,0.5,1.8c0.4,0.4,0.9,0.7,1.6,0.7c0.6,0,1.1-0.2,1.6-0.5V52c-0.3,0.1-0.6,0.2-0.9,0.3
		c-0.3,0.1-0.7,0.1-1.1,0.1C90.1,52.4,89.6,52.3,89.1,52.1z"/>
	<path d="M97.8,51.3c-1.1-0.7-2-1.6-2.6-2.8c-0.6-1.2-0.9-2.5-0.9-4c0-1.4,0.3-2.7,0.9-3.9c0.6-1.2,1.4-2.2,2.5-2.9
		c1.1-0.7,2.3-1.1,3.8-1.1c1.4,0,2.7,0.3,3.8,1c1.1,0.6,1.9,1.5,2.4,2.7c0.6,1.1,0.9,2.4,0.9,3.9c0,0.3,0,0.5-0.1,0.8H96.7
		c0.1,1.1,0.3,2.1,0.8,2.8c0.5,0.8,1.1,1.4,1.8,1.7c0.7,0.4,1.5,0.6,2.3,0.6c1.9,0,3.3-0.9,4.4-2.7l2.1,1c-0.6,1.2-1.5,2.1-2.6,2.8
		c-1.1,0.7-2.4,1-3.9,1C100.2,52.4,98.9,52,97.8,51.3z M105.8,43c0-0.6-0.2-1.2-0.5-1.9c-0.3-0.6-0.8-1.1-1.5-1.6
		c-0.7-0.4-1.5-0.6-2.5-0.6c-1.2,0-2.1,0.4-2.9,1.1c-0.8,0.7-1.3,1.7-1.6,2.9H105.8z"/>
	<path d="M111.3,37.1h2.3v2.2h0.1c0.4-0.7,1.1-1.4,1.9-1.9c0.9-0.5,1.8-0.8,2.8-0.8c1.8,0,3.1,0.5,4.1,1.5c0.9,1,1.4,2.4,1.4,4.2
		v9.5h-2.5v-9.1c0-1.4-0.3-2.4-1-3c-0.7-0.6-1.6-0.9-2.7-0.9c-0.8,0-1.5,0.2-2.1,0.7c-0.6,0.4-1.1,1-1.5,1.8
		c-0.3,0.7-0.5,1.5-0.5,2.3v8.3h-2.5V37.1z"/>
	<path d="M130.2,51.3c-1.1-0.7-1.9-1.6-2.5-2.8c-0.6-1.2-0.9-2.5-0.9-4c0-1.5,0.3-2.8,0.9-4c0.6-1.2,1.5-2.1,2.5-2.8
		c1.1-0.7,2.3-1,3.6-1c1.1,0,2.1,0.3,3,0.8c0.9,0.5,1.6,1.1,2,1.9h0.1l-0.1-2.1v-6.1h2.5v20.7H139v-2.2h-0.1c-0.5,0.7-1.1,1.4-2,1.9
		c-0.9,0.5-1.9,0.8-3,0.8C132.5,52.4,131.3,52,130.2,51.3z M136.5,49.4c0.7-0.5,1.3-1.1,1.8-2c0.5-0.8,0.7-1.8,0.7-3
		c0-1.1-0.2-2.1-0.7-3c-0.5-0.8-1.1-1.5-1.8-2c-0.7-0.5-1.5-0.7-2.4-0.7c-0.8,0-1.6,0.2-2.4,0.7s-1.4,1.1-1.8,2
		c-0.5,0.9-0.7,1.8-0.7,2.9c0,1.1,0.2,2.1,0.7,2.9c0.5,0.9,1.1,1.5,1.8,2c0.8,0.5,1.6,0.7,2.4,0.7C134.9,50.1,135.7,49.9,136.5,49.4
		z"/>
	<path d="M147.6,51.3c-1.1-0.7-2-1.6-2.6-2.8c-0.6-1.2-0.9-2.5-0.9-4c0-1.4,0.3-2.7,0.9-3.9c0.6-1.2,1.4-2.2,2.5-2.9
		c1.1-0.7,2.3-1.1,3.8-1.1c1.4,0,2.7,0.3,3.8,1c1.1,0.6,1.9,1.5,2.4,2.7c0.6,1.1,0.9,2.4,0.9,3.9c0,0.3,0,0.5-0.1,0.8h-11.7
		c0.1,1.1,0.3,2.1,0.8,2.8c0.5,0.8,1.1,1.4,1.8,1.7c0.7,0.4,1.5,0.6,2.3,0.6c1.9,0,3.3-0.9,4.4-2.7l2.1,1c-0.6,1.2-1.5,2.1-2.6,2.8
		c-1.1,0.7-2.4,1-3.9,1C150,52.4,148.7,52,147.6,51.3z M155.6,43c0-0.6-0.2-1.2-0.5-1.9c-0.3-0.6-0.8-1.1-1.5-1.6
		c-0.7-0.4-1.5-0.6-2.5-0.6c-1.2,0-2.1,0.4-2.9,1.1c-0.8,0.7-1.3,1.7-1.6,2.9H155.6z"/>
	<path d="M163.9,51.3c-1.1-0.7-1.9-1.6-2.5-2.8c-0.6-1.2-0.9-2.5-0.9-4c0-1.5,0.3-2.8,0.9-4c0.6-1.2,1.5-2.1,2.5-2.8
		c1.1-0.7,2.3-1,3.6-1c1.1,0,2.1,0.3,3,0.8c0.9,0.5,1.6,1.1,2,1.9h0.1l-0.1-2.1v-6.1h2.5v20.7h-2.3v-2.2h-0.1
		c-0.5,0.7-1.1,1.4-2,1.9c-0.9,0.5-1.9,0.8-3,0.8C166.2,52.4,165,52,163.9,51.3z M170.2,49.4c0.7-0.5,1.3-1.1,1.8-2
		c0.5-0.8,0.7-1.8,0.7-3c0-1.1-0.2-2.1-0.7-3c-0.5-0.8-1.1-1.5-1.8-2c-0.7-0.5-1.5-0.7-2.4-0.7c-0.8,0-1.6,0.2-2.4,0.7
		s-1.4,1.1-1.8,2c-0.5,0.9-0.7,1.8-0.7,2.9c0,1.1,0.2,2.1,0.7,2.9c0.5,0.9,1.1,1.5,1.8,2c0.8,0.5,1.6,0.7,2.4,0.7
		C168.6,50.1,169.4,49.9,170.2,49.4z"/>
</g>
</svg>
